<?xml version="1.0" encoding="UTF-8"?>
<!-- Generator: visioncortex VTracer 0.6.2 -->
<svg version="1.1" xmlns="http://www.w3.org/2000/svg" width="1280" height="1280">
<path d="M0 0 C2.63248715 -0.00322193 5.26497414 -0.00658667 7.89746094 -0.01008606 C13.39762664 -0.01644279 18.89778034 -0.01797262 24.39794922 -0.01733398 C30.68714981 -0.01673542 36.97626404 -0.02725665 43.26544285 -0.04307765 C48.72767048 -0.05631111 54.18987045 -0.06151134 59.65211391 -0.06087857 C62.88654969 -0.06062805 66.12089317 -0.06420141 69.35531616 -0.07405663 C122.28796783 -0.22022771 122.28796783 -0.22022771 132.60546875 7.16796875 C136.33905661 9.4963451 139.72378218 10.19971452 144 10.79296875 C145.16390259 10.97279297 145.16390259 10.97279297 146.35131836 11.15625 C152.93088253 12.13675991 159.54638621 12.83305746 166.1784668 13.34619141 C174.86628935 14.11223287 180.61743274 15.97290149 186.8125 22.16796875 C193.34466358 24.13263705 199.98304262 24.98358881 206.74609375 25.75976562 C213.89956847 26.7510494 218.89425055 29.51931446 224.22265625 34.35546875 C227.9702626 36.97822795 231.79375119 37.42697588 236.25 38.16796875 C243.79491279 39.42837181 248.87907289 40.98618439 254.2578125 46.8203125 C257.39573322 49.70393689 259.51447871 50.07757811 263.6875 50.73046875 C269.28075228 51.7788375 273.26418215 52.73146193 277.8125 56.16796875 C278.19277344 56.98523438 278.57304688 57.8025 278.96484375 58.64453125 C281.68209156 62.35561389 284.83933086 62.67640991 289.1875 63.66796875 C295.07767277 65.02491981 298.93104093 66.15763912 302.8125 71.16796875 C302.8125 72.15796875 302.8125 73.14796875 302.8125 74.16796875 C303.53695312 74.338125 304.26140625 74.50828125 305.0078125 74.68359375 C311.43673407 76.29511009 316.37964128 77.98972103 321.33984375 82.58203125 C325.62905529 86.5180136 329.84949463 88.73576576 335.26171875 90.89453125 C338.78527442 92.65361111 341.14453123 94.66365892 342.7578125 98.296875 C344.24568317 100.93646777 345.8498424 101.19186089 348.6875 102.10546875 C353.0233162 103.69464237 355.39550058 105.06957843 357.8125 109.16796875 C358.1425 110.15796875 358.4725 111.14796875 358.8125 112.16796875 C360.87383004 113.16396033 360.87383004 113.16396033 363.375 113.91796875 C368.80047209 115.93202889 372.97426587 118.81511105 376.8125 123.16796875 C376.8125 123.82796875 376.8125 124.48796875 376.8125 125.16796875 C377.54082031 125.42835938 378.26914062 125.68875 379.01953125 125.95703125 C381.8870082 127.20027301 384.03790684 128.62847186 386.5 130.54296875 C387.26699219 131.12820312 388.03398438 131.7134375 388.82421875 132.31640625 C390.8125 134.16796875 390.8125 134.16796875 391.74609375 136.15234375 C393.27910446 139.04990246 395.48136097 140.23645771 398.1875 142.04296875 C402.53315697 145.08830608 404.95393688 147.6895532 407.8125 152.16796875 C409.28042416 153.37474535 410.78458716 154.5381044 412.3125 155.66796875 C416.12847466 158.50057231 418.18722258 161.19027569 420.8125 165.16796875 C422.45098854 166.69869834 424.12121238 168.19578535 425.8125 169.66796875 C430.50750615 173.77523481 433.81188065 177.16611069 435.8125 183.16796875 C437.14470244 183.83689243 438.47820119 184.50323655 439.8125 185.16796875 C443.39746219 189.02809251 446.45513632 193.30274064 448.875 197.98046875 C450.58381033 201.34566766 450.58381033 201.34566766 453.8125 202.98046875 C458.12250462 206.12318045 459.32695941 210.15208463 460.8125 215.16796875 C460.8125 215.82796875 460.8125 216.48796875 460.8125 217.16796875 C461.72 217.37421875 462.6275 217.58046875 463.5625 217.79296875 C468.83064452 220.02179912 470.40042379 224.27201255 472.6875 229.23046875 C474.3417441 232.68167606 476.20310656 234.32618785 479.2890625 236.62890625 C483.37155436 240.75326982 485.52146387 247.09433634 486.3125 252.73046875 C486.56 253.93703125 486.56 253.93703125 486.8125 255.16796875 C488.4601038 255.88044607 490.13013529 256.54197258 491.8125 257.16796875 C494.90540395 260.84079219 496.43601082 264.64865393 498.1875 269.10546875 C500.04848974 273.76943069 502.05405341 276.86123119 505.46484375 280.47265625 C507.96266144 283.61483851 508.79291996 287.3429988 509.8125 291.16796875 C510.30326559 293.00379561 510.80322495 294.83719022 511.3125 296.66796875 C511.5290625 297.50328125 511.745625 298.33859375 511.96875 299.19921875 C512.2471875 299.84890625 512.525625 300.49859375 512.8125 301.16796875 C513.8025 301.49796875 514.7925 301.82796875 515.8125 302.16796875 C521.08046499 308.20038279 522.34083285 315.48046011 523.83984375 323.09765625 C525.04630028 328.60575436 526.04967686 330.84575261 530.8125 334.16796875 C533.85708673 338.93551479 534.57425461 343.61419901 535.3125 349.10546875 C536.24196897 355.98468661 537.2807949 362.08245316 541.8125 367.60546875 C547.3682205 374.72373564 547.78556401 383.68929687 548.875 392.35546875 C549.19333301 394.84971657 549.51733196 397.3432494 549.84765625 399.8359375 C549.9856665 400.93188232 550.12367676 402.02782715 550.26586914 403.15698242 C551.04034528 407.4230004 552.40294829 410.53382416 554.75 414.16796875 C559.86420966 422.97251955 560.32566816 434.17945684 560.9453125 444.1171875 C561.068564 445.88519463 561.068564 445.88519463 561.19430542 447.68891907 C561.4518111 451.41051281 561.69514711 455.13286061 561.9375 458.85546875 C562.19012165 462.58852116 562.44566792 466.32136224 562.70211792 470.05415344 C562.85974336 472.36351738 563.01463843 474.67306995 563.16629028 476.98283386 C563.57385338 489.23553535 563.57385338 489.23553535 566.375 501.04296875 C567.58378301 504.17770746 567.8125 505.62618191 567.8125 509.16796875 C568.52921875 509.42835938 569.2459375 509.68875 569.984375 509.95703125 C572.94505828 511.22472713 575.40817034 512.72308404 578.0625 514.54296875 C578.93390625 515.12820313 579.8053125 515.7134375 580.703125 516.31640625 C583.01749677 518.34791036 583.27231052 519.24349467 583.8125 522.16796875 C586.05993756 523.318174 586.05993756 523.318174 588.8125 524.16796875 C594.46790101 526.59171204 597.33497032 529.34723027 600.1875 534.79296875 C602.27449529 537.84319264 604.49237244 538.64624362 607.8125 540.16796875 C610.20981263 542.2151788 611.35557841 544.09410438 612.5625 546.98046875 C614.06702136 550.16311009 615.52159686 551.97054712 618.3125 554.10546875 C623.91608574 558.54762753 625.44937803 564.73278663 627.25 571.41796875 C628.51622048 575.91547317 630.41075717 577.93631306 633.8125 581.16796875 C637.62022399 588.47130821 637.96294381 596.42296791 637.94621277 604.52177429 C637.9496111 605.74311128 637.9496111 605.74311128 637.95307809 606.98912174 C637.95938181 609.70329306 637.95859106 612.41741398 637.95776367 615.1315918 C637.96075747 617.08357304 637.96416051 619.03555369 637.96794128 620.98753357 C637.97676408 626.28114756 637.97911871 631.57474537 637.97975707 636.868366 C637.98046867 640.17932855 637.98260511 643.49028702 637.98525429 646.80124855 C637.99450278 658.36286301 637.99858989 669.92446595 637.99780273 681.48608398 C637.99720242 692.24520545 638.00774641 703.00427671 638.0235464 713.76338547 C638.03664547 723.01459541 638.04198562 732.26578899 638.04134732 741.51700813 C638.04109299 747.03601683 638.04390852 752.55498091 638.05452538 758.07398033 C638.06424595 763.26882865 638.06425848 768.46359006 638.05700874 773.65844154 C638.05596774 775.55783847 638.05829682 777.45724092 638.0643692 779.35662842 C638.15012331 808.05405022 638.15012331 808.05405022 629.8671875 817.3515625 C626.92080573 821.39023408 625.6474271 825.74689984 624.1015625 830.4609375 C622.70868293 834.4673384 621.70596324 837.20602829 617.8125 839.16796875 C616.8225 839.16796875 615.8325 839.16796875 614.8125 839.16796875 C614.65394531 839.75964844 614.49539063 840.35132813 614.33203125 840.9609375 C612.78048368 846.21562622 611.31826633 849.73500393 606.8125 853.16796875 C604 853.98046875 604 853.98046875 601.8125 854.16796875 C601.77125 855.05484375 601.73 855.94171875 601.6875 856.85546875 C600.57883609 861.05255356 598.43478588 863.00302114 594.8125 865.16796875 C593.801875 865.43609375 592.79125 865.70421875 591.75 865.98046875 C588.36206646 867.3500589 588.18678164 867.94828479 586.5625 871.04296875 C584.47652808 874.8467999 582.79405577 875.84672907 578.6875 877.16796875 C575.05652422 878.31114379 575.05652422 878.31114379 572.5703125 881.0078125 C571.83233002 883.05057843 571.31575363 885.05666251 570.8125 887.16796875 C570.47523392 887.90735184 570.13796783 888.64673492 569.79048157 889.40852356 C568.65893503 892.60126332 568.60417017 895.03394296 568.66479492 898.41674805 C568.6892292 900.28105721 568.6892292 900.28105721 568.7141571 902.18302917 C568.7338131 903.17359849 568.7338131 903.17359849 568.7538662 904.18417931 C568.79363497 906.27725144 568.81778331 908.36998097 568.83747864 910.46333313 C568.89513262 916.41386304 568.9711412 922.3638943 569.07983398 928.3137207 C569.60676581 958.15559036 569.60676581 958.15559036 565.05297852 971.38110352 C563.02734916 977.56483446 562.41795552 983.83713333 561.6875 990.29296875 C559.53532789 1008.86757131 559.53532789 1008.86757131 554.75 1014.66796875 C552.8125 1016.16796875 552.8125 1016.16796875 550.8125 1016.16796875 C550.71453125 1016.84601562 550.6165625 1017.5240625 550.515625 1018.22265625 C548.98425797 1027.75409587 547.44430723 1035.5984054 539.47265625 1041.5390625 C536.8148841 1044.146806 536.05040802 1047.36695826 534.84765625 1050.82421875 C533.00637997 1054.99314618 529.85113059 1057.14865345 525.8125 1059.16796875 C525.24988472 1060.52640771 524.73677395 1061.90554542 524.25 1063.29296875 C522.16158885 1068.26575152 519.24646214 1070.49918362 514.90625 1073.54296875 C512.55182078 1075.17832864 512.55182078 1075.17832864 510.8125 1078.35546875 C508.62288227 1081.43461868 507.71223238 1081.80297388 504.3125 1083.10546875 C500.05967498 1084.75438314 499.07353393 1086.2426908 497.1640625 1090.4453125 C494.62036818 1093.68742 490.40153982 1094.47551813 486.63671875 1095.8515625 C483.70923586 1097.21610155 482.7866165 1098.01139341 481.1875 1100.73046875 C478.35825214 1105.51522615 473.99436806 1106.75207804 468.8125 1108.16796875 C465.89625455 1108.65777742 463.00473714 1109.0860812 460.0625 1109.3828125 C459.32 1109.64191406 458.5775 1109.90101562 457.8125 1110.16796875 C457.4103125 1111.31458984 457.4103125 1111.31458984 457 1112.484375 C455.51797228 1115.83356263 453.66593487 1116.84309482 450.38037109 1118.31933594 C445.10794282 1120.06177373 439.61666907 1120.6135261 434.125 1121.29296875 C431.72452998 1121.60245929 429.32474955 1121.91735791 426.92578125 1122.23828125 C425.87173096 1122.36992676 424.81768066 1122.50157227 423.73168945 1122.63720703 C419.91132124 1123.33181943 416.8608669 1124.42794506 413.6875 1126.66796875 C404.11103975 1131.6643828 392.46649025 1130.27065257 382.00879288 1129.98208046 C376.93235391 1129.85107782 371.85483494 1129.78613205 366.77734375 1129.70898438 C360.34877203 1129.60729849 353.92224895 1129.48653266 347.49560547 1129.29711914 C342.26972961 1129.14483132 337.04617978 1129.05765436 331.81832504 1129.01244164 C329.8413258 1128.98362977 327.8645099 1128.93153487 325.88879776 1128.85460854 C312.8509619 1128.31846285 312.8509619 1128.31846285 301.89655876 1134.61620617 C296.89226385 1139.80235385 293.44618665 1145.22345875 290.33984375 1151.73828125 C288.0016247 1155.45790337 284.7303778 1157.27215702 281.05078125 1159.55078125 C278.73622291 1161.22307995 277.99223566 1162.22827998 276.875 1164.79296875 C273.4558518 1170.38793854 267.6432747 1171.71270238 261.71484375 1173.96484375 C258.60670032 1175.19443895 256.76680506 1176.21606868 254.4375 1178.66796875 C247.52921346 1185.24728926 238.07630129 1184.59941162 229.08203125 1184.55615234 C227.71600934 1184.56022497 226.34999073 1184.56557072 224.98397827 1184.57208252 C221.29799083 1184.5856799 217.61225721 1184.58048912 213.92626572 1184.57094526 C210.05475977 1184.56330911 206.18327445 1184.5704052 202.31176758 1184.57510376 C195.81229787 1184.58054985 189.31293068 1184.5733999 182.81347656 1184.55908203 C175.31699691 1184.54275768 167.8207621 1184.54804701 160.32428837 1184.56456125 C153.86879677 1184.5782089 147.41337854 1184.5800798 140.95787716 1184.57224524 C137.11068145 1184.56758669 133.26360053 1184.56689347 129.41641235 1184.57685471 C125.79816954 1184.58557005 122.18024004 1184.57942 118.56203079 1184.56217194 C116.61365429 1184.55636308 114.66525105 1184.5651835 112.71688843 1184.57455444 C106.08777238 1184.52692293 99.79418912 1184.31696749 93.8125 1181.16796875 C92.46162497 1179.72060265 91.11308616 1178.27006195 89.8125 1176.77734375 C86.43230446 1174.05734265 82.27046361 1172.80429412 78.19287109 1171.4362793 C73.68913462 1169.84433276 71.40729294 1168.16979729 68.8125 1164.16796875 C68.48894531 1163.44867187 68.16539062 1162.729375 67.83203125 1161.98828125 C66.46630461 1159.54985744 65.04240699 1159.12829879 62.5 1158.04296875 C57.53558846 1155.48554463 56.19415276 1152.59680181 54.0625 1147.5859375 C52.43386822 1144.4355529 50.38987531 1142.83185753 47.4609375 1140.91015625 C42.35103566 1135.50964388 41.70043712 1126.2800524 40.43945312 1119.234375 C39.49034383 1114.33395293 38.11641903 1110.26087093 35.71264648 1105.87695312 C33.44693594 1101.57536002 33.52225778 1097.28169895 33.4375 1092.54296875 C33.40011719 1091.77339844 33.36273437 1091.00382812 33.32421875 1090.2109375 C33.23901896 1084.55935158 34.62113889 1081.31016434 37.55175781 1076.54296875 C39.80684621 1072.29480843 40.49052197 1067.67107606 41.375 1062.98046875 C43.11334811 1053.84646297 45.37017673 1048.9775382 51.48046875 1041.92578125 C53.07165982 1039.82596899 54.24343911 1037.60787247 55.5 1035.29296875 C58.36199441 1030.38564157 61.76291798 1027.40875676 66.29296875 1024.046875 C68.66206808 1022.28015131 70.82081732 1020.41096883 73 1018.41796875 C78.17398648 1013.88300052 82.59102563 1011.38851655 89.3125 1009.79296875 C93.14708648 1008.84602881 95.44570916 1007.95169022 98.25 1005.16796875 C105.23215844 998.38658755 116.75956082 998.72691119 125.90820312 998.77978516 C127.05135483 998.7745282 128.19450653 998.76927124 129.37229919 998.76385498 C133.112926 998.75076077 136.85311963 998.75935571 140.59375 998.76953125 C143.21586182 998.76750749 145.8379731 998.76459353 148.46008301 998.76083374 C153.94039514 998.75539996 159.42058535 998.76250484 164.90087891 998.77685547 C171.20620321 998.79317748 177.51123633 998.78788727 183.81655359 998.77137625 C189.92159996 998.75603916 196.02651885 998.75776753 202.13157654 998.76652145 C204.71178733 998.76851288 207.29200563 998.76610165 209.87220764 998.75908279 C213.48726672 998.75140533 217.10177824 998.76316094 220.71679688 998.77978516 C221.76753891 998.77371246 222.81828094 998.76763977 223.90086365 998.76138306 C231.09048339 998.8221768 238.03600271 999.6329691 244.8125 1002.16796875 C246.20279941 1003.62146359 247.59310125 1005.08034992 248.8671875 1006.63671875 C251.78258918 1008.93157308 255.16222719 1009.60090432 258.6875 1010.54296875 C265.03747941 1012.27171003 268.84245188 1014.19722172 273.21875 1019.3125 C276.10716005 1022.67523229 279.87846681 1024.67114259 283.75 1026.73046875 C289.05396553 1030.95199234 292.78292597 1036.97973392 294.86328125 1043.421875 C296.08880466 1046.96731927 297.6175404 1047.37567434 300.8125 1049.16796875 C303.52147111 1052.74768058 304.15980579 1055.7864567 304.8125 1060.16796875 C316.92286866 1060.19960409 329.03258252 1060.19311062 341.14289093 1060.13950253 C346.7678097 1060.1157676 352.39213939 1060.10459221 358.01708984 1060.12329102 C363.45751073 1060.14089478 368.8968797 1060.12397786 374.33717346 1060.08429146 C376.4004994 1060.07508103 378.46391808 1060.07778412 380.52720642 1060.09327507 C392.40802706 1060.1737253 401.87645328 1059.37972643 412.51055908 1053.81626892 C417.2216802 1051.46451826 421.89535051 1050.56921731 427.0625 1049.79296875 C428.83862209 1049.4939669 430.61466701 1049.19450622 432.390625 1048.89453125 C433.14762695 1048.77674316 433.90462891 1048.65895508 434.68457031 1048.53759766 C437.78737914 1048.01046058 437.78737914 1048.01046058 440.8125 1047.16796875 C441.48691131 1045.50442085 442.1525321 1043.83729933 442.8125 1042.16796875 C445.88672766 1039.09374109 449.34349122 1037.39983664 453.1875 1035.48046875 C458.20358512 1032.82133929 460.92813691 1029.99260107 464.13671875 1025.375 C465.85019964 1023.11831772 467.57631053 1021.64107459 469.8125 1019.91796875 C474.42220793 1016.12697343 476.52715613 1011.37404854 479.1484375 1006.1015625 C480.66979252 1003.41954931 481.55538263 1002.24188772 484.0625 1000.60546875 C488.0286484 997.09001903 488.41228966 993.47421949 489.38671875 988.37988281 C490.11874601 984.57703476 490.91410693 980.78718934 491.70092773 976.99536133 C492.14529394 974.84305806 492.58247875 972.68925781 493.01196289 970.53393555 C493.2155542 969.52758057 493.41914551 968.52122559 493.62890625 967.484375 C493.80881104 966.58146729 493.98871582 965.67855957 494.17407227 964.74829102 C494.8125 962.16796875 494.8125 962.16796875 495.82397461 959.83569336 C499.17515401 950.79189554 498.10510577 939.92495023 498.16259766 930.42480469 C498.17914089 928.4272902 498.20640934 926.42983452 498.24462891 924.43261719 C499.02435805 907.96937299 499.02435805 907.96937299 492.8125 893.16796875 C488.90866208 891.164831 485.21525416 890.75479818 480.875 890.29296875 C475.36065494 889.54887826 471.86972038 889.00587992 467.8125 885.16796875 C467.4 884.34296875 466.9875 883.51796875 466.5625 882.66796875 C464.48159422 879.69524621 463.22756629 879.38174457 459.875 878.16796875 C455.55286039 876.59914548 453.13987538 875.31676834 450.8125 871.16796875 C450.0625 868.35546875 450.0625 868.35546875 449.8125 866.16796875 C448.905 865.94109375 447.9975 865.71421875 447.0625 865.48046875 C443.1369792 863.89516227 442.05004968 862.74804823 439.8125 859.16796875 C439.16839915 857.50859029 438.54500322 855.84109236 437.9375 854.16796875 C436.54524153 850.42593018 435.9562472 849.2853134 432.75 846.66796875 C426.75342341 841.56449931 426.62732954 833.54718921 426.00224245 826.094396 C425.70499303 821.50987201 425.67123248 816.94080277 425.67878723 812.34797668 C425.6753889 810.80110413 425.6753889 810.80110413 425.67192191 809.22298163 C425.66563689 805.79813818 425.66640771 802.37333487 425.66723633 798.94848633 C425.6642414 796.48024444 425.6608381 794.01200302 425.65705872 791.54376221 C425.64916195 785.55277241 425.64600553 779.56179813 425.64544634 773.57080457 C425.64496943 768.69563087 425.64290599 763.82046039 425.63974571 758.9452877 C425.63094899 745.09093162 425.62632478 731.23658325 425.62707619 717.38222436 C425.62713612 716.26429405 425.62713612 716.26429405 425.62719727 715.1237793 C425.62725859 714.00446722 425.62725859 714.00446722 425.62732115 712.86254277 C425.62772731 700.7784 425.6181627 688.69428842 425.6040589 676.61015467 C425.58965602 664.17055044 425.58279086 651.7309614 425.58365268 639.29134864 C425.5839833 632.32021909 425.58129548 625.34912225 425.57047462 618.37800026 C425.56035528 611.81732696 425.56074474 605.25671058 425.56799126 598.69602966 C425.56903161 596.29841702 425.56670711 593.90079998 425.5606308 591.50319481 C425.4752205 555.4449888 425.4752205 555.4449888 432.8125 546.16796875 C433.68357232 544.84561801 434.53762169 543.51190924 435.375 542.16796875 C435.78878906 541.513125 436.20257812 540.85828125 436.62890625 540.18359375 C437.82810259 538.14139801 438.82127096 536.06762209 439.8125 533.91796875 C441.55315096 530.33879891 443.48839827 528.438087 446.8125 526.16796875 C449.81228387 523.97300495 451.71934618 522.31220692 453.75 519.16796875 C457.13423166 514.24544997 461.28950073 512.31476211 466.75 510.29296875 C470.15974882 509.00293025 472.51503599 507.76901584 475.125 505.23046875 C479.7817921 500.81994931 485.87184512 499.25342941 491.8125 497.16796875 C492.4725 496.83796875 493.1325 496.50796875 493.8125 496.16796875 C493.69189209 494.91028687 493.69189209 494.91028687 493.56884766 493.62719727 C493.18974933 489.66180713 492.81306819 485.69619452 492.4375 481.73046875 C492.36902863 481.00911743 492.30055725 480.28776611 492.23001099 479.54455566 C491.21915188 468.86810614 490.28795236 458.18976006 489.54736328 447.49047852 C489.07085529 433.75659196 489.07085529 433.75659196 482.8125 422.16796875 C477.80770658 410.97880097 476.78913964 397.86567188 475.57299805 385.78979492 C475.37631377 383.9090408 475.10196082 382.03669377 474.8125 380.16796875 C472.97965557 379.0428079 472.97965557 379.0428079 470.8125 378.16796875 C467.16803539 372.80053741 465.85375722 367.87843622 464.75 361.54296875 C463.51416998 354.57051291 462.26285077 349.80209583 457.3125 344.48046875 C454.53202895 341.23520253 453.6495132 337.89394806 452.546875 333.8203125 C450.93338421 327.99286439 449.27033462 322.39842914 444.9375 318.04296875 C441.13078907 314.06409501 439.7520413 309.10947771 438.16845703 303.94091797 C436.42298709 298.63820835 434.23995524 296.53400757 429.8125 293.16796875 C428.45703125 291.24609375 428.45703125 291.24609375 427.625 289.41796875 C427.15126953 288.39703125 427.15126953 288.39703125 426.66796875 287.35546875 C425.77450707 285.07081788 425.10860859 282.77654692 424.4375 280.41796875 C423.36371797 276.99347471 423.12556379 276.37667794 420 274.29296875 C415.20182362 271.0941845 413.13525745 266.35710774 410.8125 261.16796875 C410.8125 260.50796875 410.8125 259.84796875 410.8125 259.16796875 C410.22726562 258.92691406 409.64203125 258.68585938 409.0390625 258.4375 C406.38528826 256.92438311 405.03616718 255.27828146 403.1875 252.85546875 C402.59710937 252.09621094 402.00671875 251.33695313 401.3984375 250.5546875 C399.09887949 247.09402261 397.8125 244.34620798 397.8125 240.16796875 C396.905 239.94109375 395.9975 239.71421875 395.0625 239.48046875 C391.22257408 237.92972944 390.03881011 236.62258789 387.8125 233.16796875 C387.379375 231.99234375 386.94625 230.81671875 386.5 229.60546875 C384.61820136 225.77217522 383.28919977 225.24072814 379.56640625 223.4609375 C377.19373744 221.71182085 376.53325542 219.85747709 375.375 217.16796875 C373.2458163 212.33147863 371.45160783 211.09946343 366.65234375 209.22265625 C364.29438994 207.87096299 363.83663867 206.65321193 362.8125 204.16796875 C361.55067923 201.08895616 361.55067923 201.08895616 359.0078125 199.078125 C357.98300781 198.65853516 357.98300781 198.65853516 356.9375 198.23046875 C353.23126611 196.70557916 351.85649898 195.10255721 349.8125 191.66796875 C347.28173068 187.43153024 345.05941897 185.88024321 340.57421875 183.9921875 C337.46264112 182.53643832 336.2306897 180.26120579 335.04296875 177.15625 C333.39520972 174.49368065 331.95738536 174.25554255 329 173.35546875 C325.3749467 172.03913734 323.44804473 171.24793477 321.5625 167.85546875 C318.61248881 162.84581339 313.19325103 161.17448735 308.08984375 158.94140625 C304.63669568 157.07283745 302.93508296 155.43918139 300.8125 152.16796875 C300.8125 151.50796875 300.8125 150.84796875 300.8125 150.16796875 C300.23242188 149.9978125 299.65234375 149.82765625 299.0546875 149.65234375 C294.09163138 148.11264977 289.86358646 146.54387413 285.8125 143.16796875 C285.44125 142.15734375 285.07 141.14671875 284.6875 140.10546875 C282.34288548 136.43223934 281.2074753 136.48407356 277.0625 135.54296875 C275.99515625 135.31996094 274.9278125 135.09695312 273.828125 134.8671875 C269.73419723 133.91794777 267.21172549 132.64657067 263.8125 130.16796875 C263.24273438 129.17667969 262.67296875 128.18539062 262.0859375 127.1640625 C259.15414687 123.3003453 257.12519792 123.00670704 252.4375 122.04296875 C245.72425267 120.6303616 241.09830204 118.76266296 236.5 113.54296875 C233.35616416 110.76469522 231.31169898 110.34708142 227.28515625 109.62109375 C220.73747405 108.42120254 214.6358763 106.99134505 209.8125 102.16796875 C209.1525 101.17796875 208.4925 100.18796875 207.8125 99.16796875 C205.17691109 98.55150897 202.67062986 98.09949071 200 97.73046875 C179.32375412 94.44525276 179.32375412 94.44525276 172.8125 87.16796875 C165.60932925 84.50848745 157.91126755 84.17373878 150.32421875 83.40039062 C141.32724591 82.41105157 132.89674736 80.94077755 124.875 76.60546875 C113.93173188 70.91395204 100.39429088 71.5551795 88.3125 71.04296875 C87.35941956 71.00127563 86.40633911 70.95958252 85.42437744 70.91662598 C49.81184017 69.40312416 14.0450323 69.39598214 -21.5625 71.04296875 C-22.42893127 71.08208374 -23.29536255 71.12119873 -24.18804932 71.16149902 C-43.14224195 71.40693699 -43.14224195 71.40693699 -60.1875 78.16796875 C-70.90580291 82.30541891 -82.15621939 83.34564798 -93.50390625 84.4140625 C-100.48300002 85.20374589 -105.15894168 86.06170957 -110.50366211 90.71484375 C-117.05100001 96.36509098 -126.61619237 96.44002954 -134.82226562 97.453125 C-135.86705078 97.60394531 -136.91183594 97.75476563 -137.98828125 97.91015625 C-139.41394409 98.09360596 -139.41394409 98.09360596 -140.8684082 98.28076172 C-143.43358803 98.95238262 -143.43358803 98.95238262 -144.31323242 101.61376953 C-144.60174072 102.45665527 -144.89024902 103.29954102 -145.1875 104.16796875 C-151.25273627 108.21145959 -157.60952088 109.12848865 -164.69921875 110.1640625 C-168.85366341 111.35968655 -170.3484191 112.97106007 -173.1875 116.16796875 C-177.07822604 119.79800963 -180.77396795 121.18287457 -185.875 122.35546875 C-190.65129821 123.41281199 -190.65129821 123.41281199 -195.1875 125.16796875 C-195.868125 126.34359375 -195.868125 126.34359375 -196.5625 127.54296875 C-200.01081333 133.11332104 -205.11092086 134.52647673 -211.1875 136.16796875 C-213.52838301 136.6164956 -215.81441172 136.91551255 -218.1875 137.16796875 C-218.27 137.91046875 -218.3525 138.65296875 -218.4375 139.41796875 C-219.37998411 142.8737438 -220.34870001 143.98427645 -223.1875 146.16796875 C-224.48684916 146.68172814 -225.8012282 147.15838356 -227.125 147.60546875 C-231.15590711 148.98151125 -233.35312306 150.93992834 -236.1875 154.16796875 C-239.17210228 157.50678756 -241.90856588 159.13223371 -246 160.91796875 C-251.18427347 163.38756811 -254.04424642 165.92261464 -257.52734375 170.3984375 C-260.3238726 173.37920826 -263.29191462 174.11153882 -267.1875 175.16796875 C-267.8475 175.16796875 -268.5075 175.16796875 -269.1875 175.16796875 C-269.55875 176.52921875 -269.55875 176.52921875 -269.9375 177.91796875 C-271.28566641 181.42320142 -272.25597626 182.87028798 -275.1875 185.16796875 C-276.321875 185.58046875 -277.45625 185.99296875 -278.625 186.41796875 C-282.32251293 188.23429089 -282.73526926 188.66670158 -284.5625 192.04296875 C-286.50132342 195.5910156 -288.18092863 196.96739942 -291.8125 198.73046875 C-296.67851057 201.10315159 -297.42668985 203.16356095 -299.1875 208.16796875 C-301.25632685 210.09887381 -303.1332649 211.14220708 -305.6875 212.35546875 C-308.80605558 214.61642155 -309.65496238 216.86318745 -311.22265625 220.30078125 C-312.83775904 223.42636478 -314.9823926 224.76626628 -318.25 225.85546875 C-320.6030898 227.44949732 -320.71299183 228.32761868 -321.5625 230.98046875 C-323.08353254 235.60239082 -325.24045618 237.39664011 -329.1875 240.16796875 C-329.8475 240.49796875 -330.5075 240.82796875 -331.1875 241.16796875 C-332.1784025 243.03644473 -333.10638525 244.93855901 -334 246.85546875 C-336.90145238 252.79922072 -339.75376648 256.97760858 -344.6875 261.41796875 C-347.64062665 264.66640807 -349.19654162 267.9767968 -350.9765625 271.9609375 C-352.1875 274.16796875 -352.1875 274.16796875 -355.1875 276.16796875 C-356.1775 276.16796875 -357.1675 276.16796875 -358.1875 276.16796875 C-358.33445312 276.92980469 -358.48140625 277.69164062 -358.6328125 278.4765625 C-360.46726647 286.92137646 -363.13507104 293.69445821 -369.8125 299.41796875 C-373.094954 303.21870496 -373.81448857 307.26808632 -375.1484375 312.05078125 C-376.5029869 316.11442945 -378.06008538 318.28745529 -381.1875 321.16796875 C-381.8475 321.16796875 -382.5075 321.16796875 -383.1875 321.16796875 C-383.36925781 321.77382813 -383.55101562 322.3796875 -383.73828125 323.00390625 C-384.26820586 324.77032162 -384.80096948 326.53588675 -385.3359375 328.30078125 C-385.88324667 330.14355617 -386.4110098 331.99231134 -386.9140625 333.84765625 C-388.51760747 339.64508807 -390.36317009 344.45226692 -394.8125 348.73046875 C-398.87551752 352.97816888 -399.07679568 359.63134554 -399.95507812 365.19726562 C-400.8904192 370.64911553 -402.22593936 375.22840692 -406.27734375 379.234375 C-410.88748532 383.90108273 -411.066272 391.9412075 -411.828125 398.203125 C-413.12796033 408.85658303 -414.67958865 416.8398069 -420.1875 426.16796875 C-425.41942355 437.3792335 -424.61242737 452.36028553 -425.43310547 464.48364258 C-426.15439383 475.06658531 -427.11398744 485.61556866 -428.1875 496.16796875 C-427.5584375 496.4103125 -426.929375 496.65265625 -426.28125 496.90234375 C-411.97750016 502.50320965 -411.97750016 502.50320965 -406.01953125 507.88671875 C-403.54632389 509.61638189 -400.94158061 510.53248566 -398.125 511.60546875 C-392.77390211 513.71548139 -390.35495313 515.41678905 -387.1875 520.16796875 C-384.94969694 523.19983095 -383.30312587 525.09245798 -380.125 527.16796875 C-375.58239607 530.26080547 -373.78016704 534.88951005 -371.25 539.66796875 C-369.63937357 542.65799307 -368.17849052 545.17878012 -366 547.79296875 C-359.06880407 556.87522549 -360.03593867 570.1371318 -360.05378723 580.98796082 C-360.05152167 582.01920918 -360.04925612 583.05045755 -360.04692191 584.11295587 C-360.04063689 587.53779932 -360.04140771 590.96260263 -360.04223633 594.38745117 C-360.0392414 596.85569306 -360.0358381 599.32393448 -360.03205872 601.79217529 C-360.02416195 607.78316509 -360.02100553 613.77413937 -360.02044634 619.76513293 C-360.01996943 624.64030663 -360.01790599 629.51547711 -360.01474571 634.3906498 C-360.00594899 648.24500588 -360.00132478 662.09935425 -360.00207619 675.95371314 C-360.00211614 676.69900001 -360.0021561 677.44428688 -360.00219727 678.2121582 C-360.00223815 678.95836626 -360.00227903 679.70457431 -360.00232115 680.47339473 C-360.00272731 692.5575375 -359.9931627 704.64164908 -359.9790589 716.72578283 C-359.96465602 729.16538706 -359.95779086 741.6049761 -359.95865268 754.04458886 C-359.9589833 761.01571841 -359.95629548 767.98681525 -359.94547462 774.95793724 C-359.93535528 781.51861054 -359.93574474 788.07922692 -359.94299126 794.63990784 C-359.94403161 797.03752048 -359.94170711 799.43513752 -359.9356308 801.83274269 C-359.85449594 836.08595881 -359.85449594 836.08595881 -365.1875 845.16796875 C-366.02152344 845.82796875 -366.85554687 846.48796875 -367.71484375 847.16796875 C-370.71661918 849.59594509 -371.4571257 851.56413796 -372.75 855.16796875 C-374.2930742 859.43945441 -375.65411678 862.24284686 -379.1875 865.16796875 C-381.9375 865.91796875 -381.9375 865.91796875 -384.1875 866.16796875 C-384.27 866.88984375 -384.3525 867.61171875 -384.4375 868.35546875 C-385.39806678 871.95759416 -386.50493437 873.55246726 -389.1875 876.16796875 C-390.64748176 876.83655853 -392.12947357 877.45819552 -393.625 878.04296875 C-397.10752501 879.43257563 -398.77992879 880.53412872 -400.75 883.73046875 C-403.39101914 887.859262 -406.51130925 889.09734901 -411.1875 890.16796875 C-418.41102813 891.47536161 -418.41102813 891.47536161 -421.3762207 891.90332031 C-426.24711061 892.68797273 -429.15625112 894.44126195 -433.1875 897.16796875 C-443.06777643 899.90105447 -452.50229795 899.542919 -462.1875 896.16796875 C-462.78828369 895.67312988 -463.38906738 895.17829102 -464.00805664 894.66845703 C-466.71319326 892.80604304 -468.73538259 892.54430485 -471.984375 892.140625 C-473.1084375 891.98787109 -474.2325 891.83511719 -475.390625 891.67773438 C-477.73934381 891.38155783 -480.08830046 891.08726088 -482.4375 890.79492188 C-490.31180861 889.72074393 -497.72337456 888.50589926 -503.1875 882.16796875 C-503.1875 881.50796875 -503.1875 880.84796875 -503.1875 880.16796875 C-503.83976562 879.98621094 -504.49203125 879.80445313 -505.1640625 879.6171875 C-515.45209144 876.65824112 -515.45209144 876.65824112 -519.1875 874.16796875 C-520.11507548 872.40877387 -521.04086454 870.6482224 -521.92578125 868.8671875 C-523.99754841 866.07703668 -526.89771039 865.34563483 -530.0625 864.1328125 C-533.04774913 862.77737769 -534.49074763 860.92519135 -536.1875 858.16796875 C-536.6825 856.68296875 -536.6825 856.68296875 -537.1875 855.16796875 C-538.92681012 854.03956454 -538.92681012 854.03956454 -541 853.04296875 C-545.87031135 850.18373749 -547.60332912 846.47285675 -549.1875 841.16796875 C-549.1875 840.50796875 -549.1875 839.84796875 -549.1875 839.16796875 C-549.765 839.08546875 -550.3425 839.00296875 -550.9375 838.91796875 C-553.97525094 837.9053851 -555.12542679 836.63692614 -557.1875 834.16796875 C-558.25577439 831.55880644 -559.19064646 829.02590343 -560.0625 826.35546875 C-561.9677847 820.8590297 -563.78185854 816.78191158 -567.93359375 812.59765625 C-573.12751865 806.67561104 -572.33687362 795.24539229 -572.32121277 787.68717957 C-572.32347833 786.87139492 -572.32574388 786.05561027 -572.32807809 785.21510488 C-572.33437081 782.50170561 -572.33359179 779.7883569 -572.33276367 777.07495117 C-572.33575811 775.12119991 -572.33916129 773.16744924 -572.34294128 771.21369934 C-572.35175629 765.92021171 -572.35411834 760.62674025 -572.35475707 755.33324599 C-572.35546896 752.02245336 -572.35760591 748.7116648 -572.36025429 745.40087318 C-572.36949925 733.84040695 -572.37359021 722.27995223 -572.37280273 710.71948242 C-572.37220208 699.95975217 -572.3827536 689.20007208 -572.3985464 678.44035453 C-572.41164024 669.18829081 -572.41698586 659.93624345 -572.41634732 650.68417054 C-572.41609289 645.16464969 -572.41891391 639.64517344 -572.42952538 634.12566185 C-572.43923747 628.93244492 -572.43926423 623.73931496 -572.43200874 618.54609489 C-572.43096679 616.64627708 -572.43330256 614.74645377 -572.4393692 612.84664536 C-572.51833971 586.39133978 -572.51833971 586.39133978 -565.1875 577.16796875 C-564.42566406 576.51248047 -564.42566406 576.51248047 -563.6484375 575.84375 C-561.54199196 573.42753306 -561.07702829 570.93286585 -560.25 567.85546875 C-558.35782562 561.42207587 -556.54972481 557.03806339 -551.1875 552.79296875 C-547.96876478 549.97657543 -546.90322703 547.81628189 -545.1796875 544.02734375 C-543.24296901 540.3979028 -540.10710978 538.64966911 -536.5625 536.79296875 C-533.51227611 534.70597346 -532.70922513 532.48809631 -531.1875 529.16796875 C-529.10480379 526.74324619 -526.98547263 525.37595166 -524.125 523.98046875 C-523.43277344 523.63628906 -522.74054688 523.29210937 -522.02734375 522.9375 C-520.1875 522.16796875 -520.1875 522.16796875 -518.1875 522.16796875 C-517.878125 521.06388672 -517.878125 521.06388672 -517.5625 519.9375 C-515.75754202 516.30194543 -513.5879883 515.02573232 -510.1875 512.85546875 C-508.57875 511.80939453 -508.57875 511.80939453 -506.9375 510.7421875 C-504.1875 509.16796875 -504.1875 509.16796875 -502.1875 509.16796875 C-502.06375 507.95109375 -501.94 506.73421875 -501.8125 505.48046875 C-501.56491052 503.04583886 -501.21003751 501.21864155 -500.21044922 498.97119141 C-498.98865643 495.62307094 -498.69771296 492.63090265 -498.40625 489.078125 C-498.34800552 488.38945847 -498.28976105 487.70079193 -498.22975159 486.99125671 C-498.04148258 484.73821046 -497.8646129 482.48441685 -497.6875 480.23046875 C-497.55714162 478.65978229 -497.42619391 477.08914463 -497.29467773 475.51855469 C-496.66809017 467.92068976 -496.11308476 460.32299902 -495.69140625 452.7109375 C-493.95044391 421.62423742 -493.95044391 421.62423742 -488.15625 413.22265625 C-485.96951179 409.82974102 -485.28096953 407.2488793 -484.5625 403.29296875 C-484.38158813 402.32774292 -484.38158813 402.32774292 -484.19702148 401.34301758 C-483.45181848 397.2132471 -482.92689943 393.07933295 -482.47363281 388.90869141 C-480.68549497 372.49139967 -480.68549497 372.49139967 -475.15234375 367.234375 C-472.81811173 364.77948685 -472.34768094 363.1416217 -471.625 359.85546875 C-471.38394531 358.80488281 -471.14289063 357.75429688 -470.89453125 356.671875 C-470.39727495 354.20757166 -469.93985441 351.73505989 -469.51171875 349.2578125 C-467.29179655 336.48698891 -467.29179655 336.48698891 -462.1875 332.16796875 C-461.5275 332.16796875 -460.8675 332.16796875 -460.1875 332.16796875 C-459.93355469 330.94980469 -459.67960937 329.73164063 -459.41796875 328.4765625 C-459.07068675 326.8527845 -458.72300945 325.229091 -458.375 323.60546875 C-458.20935547 322.80560547 -458.04371094 322.00574219 -457.87304688 321.18164062 C-456.44958982 314.60150896 -454.86220499 308.83835959 -450.1875 303.80078125 C-446.16375157 299.35230382 -445.06632764 294.34670968 -443.5546875 288.6640625 C-441.89211953 282.99795441 -439.84120456 280.95629002 -435.1875 277.16796875 C-433.81289002 274.60856594 -432.97164633 271.94067154 -432.125 269.16796875 C-430.40928687 263.64917637 -428.88025582 259.91631661 -424.1875 256.16796875 C-423.1975 256.16796875 -422.2075 256.16796875 -421.1875 256.16796875 C-421.02894531 255.39453125 -420.87039063 254.62109375 -420.70703125 253.82421875 C-419.24928236 247.31669886 -417.76778159 241.21836722 -413.1875 236.16796875 C-411.53166775 235.47482967 -409.86639021 234.80322451 -408.1875 234.16796875 C-407.11164941 231.44361238 -407.11164941 231.44361238 -406.1875 228.16796875 C-404.0650956 223.92315995 -402.22246398 220.80162017 -398.125 218.29296875 C-394.30520919 215.52971582 -393.71651435 212.84639072 -392.1875 208.5078125 C-390.85096923 205.38053933 -389.01593622 203.98106889 -386.1875 202.16796875 C-383.85984374 200.10616156 -382.61707172 198.25374892 -381.375 195.41796875 C-378.7684275 189.9959 -375.0298379 185.96306722 -370.75 181.79296875 C-367.81654136 178.78796234 -365.40172406 175.54779165 -362.93359375 172.15625 C-361.1875 170.16796875 -361.1875 170.16796875 -359.21484375 169.234375 C-356.30616003 167.70437374 -355.12367181 165.50608957 -353.3125 162.79296875 C-350.27613327 158.45771181 -347.67557245 155.99740573 -343.1875 153.16796875 C-342.23238778 151.92577078 -341.31914383 150.65084487 -340.4375 149.35546875 C-337.44220289 145.09899391 -333.88012035 142.71538373 -329.56640625 139.88671875 C-327.326593 138.26846287 -325.82325288 136.76258104 -324.125 134.60546875 C-320.87486903 130.48925703 -316.77252646 127.6713932 -312.1875 125.16796875 C-311.5275 125.16796875 -310.8675 125.16796875 -310.1875 125.16796875 C-309.5275 123.84796875 -308.8675 122.52796875 -308.1875 121.16796875 C-307.5275 121.16796875 -306.8675 121.16796875 -306.1875 121.16796875 C-305.81431641 120.24564453 -305.81431641 120.24564453 -305.43359375 119.3046875 C-303.96319389 116.78334354 -302.87373547 116.17751752 -300.25 114.98046875 C-299.56035156 114.65691406 -298.87070312 114.33335937 -298.16015625 114 C-296.53254283 113.31350167 -294.86331767 112.72657464 -293.1875 112.16796875 C-292.65125 111.07484375 -292.115 109.98171875 -291.5625 108.85546875 C-289.36560804 104.68307705 -286.56619279 103.70611768 -282.30078125 102.05859375 C-278.6215785 100.50802401 -276.74145996 97.98308127 -274.546875 94.75390625 C-271.22136895 91.10906352 -267.23947119 89.72185108 -262.76367188 87.93945312 C-259.24579531 86.4398568 -256.93827121 85.1633075 -254.59765625 82.08984375 C-251.85456749 78.76434879 -250.15039862 78.0183171 -246.0625 76.85546875 C-244.51175781 76.39720703 -244.51175781 76.39720703 -242.9296875 75.9296875 C-242.02476562 75.67832031 -241.11984375 75.42695312 -240.1875 75.16796875 C-238.7025 74.67296875 -238.7025 74.67296875 -237.1875 74.16796875 C-236.81625 73.02328125 -236.81625 73.02328125 -236.4375 71.85546875 C-234.64151012 67.99409051 -231.99963195 66.68662294 -228.1875 65.16796875 C-224.60193916 64.20121344 -221.01912943 63.29723816 -217.39453125 62.48828125 C-213.36362996 60.82878717 -212.40741742 58.83130886 -210.1875 55.16796875 C-205.54469001 51.85984746 -199.93727108 50.87050034 -194.4375 49.79296875 C-188.37444325 48.5128338 -186.68645128 47.10766467 -183.1875 42.16796875 C-177.21191413 39.15059371 -171.29488585 38.13352739 -164.7109375 37.01171875 C-160.20851747 35.93353391 -157.34277295 34.16712374 -153.875 31.16796875 C-147.61757128 26.51127761 -140.41638813 25.52251437 -132.875 24.54296875 C-131.10775891 24.30308332 -129.34081552 24.06099151 -127.57421875 23.81640625 C-126.80295654 23.71505371 -126.03169434 23.61370117 -125.23706055 23.50927734 C-121.83917535 22.94343535 -120.39675822 22.40184558 -118.0625 19.79296875 C-110.13813704 12.55768083 -97.53445912 12.98391404 -87.3203125 11.93847656 C-85.13694617 11.71152138 -82.95530158 11.47137658 -80.7734375 11.23046875 C-79.4848584 11.09769531 -78.1962793 10.96492188 -76.86865234 10.828125 C-72.83390507 10.10455711 -69.87871814 8.91343949 -66.1875 7.16796875 C-45.91327104 -2.05057225 -21.79089508 0.00632034 0 0 Z M-461.25 568.23046875 C-462.34449463 568.3389917 -463.43898926 568.44751465 -464.56665039 568.55932617 C-469.43785456 569.16714332 -472.39738285 569.5465283 -476.31640625 572.62890625 C-477.56799319 574.32730188 -478.81667538 576.02784177 -480.0625 577.73046875 C-482.29964133 580.29660146 -484.47438653 581.38185534 -487.45703125 582.93359375 C-490.16169348 584.86287877 -491.3987785 587.49041248 -492.99609375 590.34765625 C-494.59748835 592.79437718 -496.67900018 593.74422561 -499.1875 595.16796875 C-507.82718856 611.48700179 -504.62351008 635.87080498 -504.55754495 653.88625574 C-504.54599846 657.79476474 -504.55035532 661.70326466 -504.55229187 665.61178589 C-504.55316748 672.16555125 -504.54224838 678.71921173 -504.52368164 685.27294922 C-504.50250772 692.78875498 -504.49901247 700.30440771 -504.5052436 707.82023728 C-504.51098942 715.13248608 -504.50523195 722.44468245 -504.49407005 729.75692368 C-504.48949429 732.83210114 -504.48851895 735.9072458 -504.4906559 738.98242569 C-504.52203602 759.11912049 -504.52203602 759.11912049 -503.35620117 779.21435547 C-503.28727063 780.0237665 -503.21834009 780.83317753 -503.14732075 781.66711617 C-502.28406318 789.85958942 -499.85092988 796.23536891 -493.9375 802.16796875 C-492.94554118 803.19818628 -491.95465525 804.22943794 -490.96484375 805.26171875 C-490.48644043 805.75542969 -490.00803711 806.24914062 -489.51513672 806.7578125 C-487.73869818 808.64466594 -486.12795095 810.6527685 -484.5 812.66796875 C-479.96406892 817.8595676 -474.77799104 819.77455013 -468.25 821.54296875 C-464.46085058 822.58585391 -461.79356421 823.97450713 -458.625 826.29296875 C-454.91037095 828.9004156 -451.88339759 830.28858073 -447.3203125 830.54296875 C-443.94590541 829.94966641 -442.11305919 828.09821932 -439.75 825.71875 C-438.1875 824.16796875 -438.1875 824.16796875 -435.4375 822.60546875 C-432.497128 820.72689775 -431.65457768 819.36097714 -430.1875 816.16796875 C-429.7529029 812.9704724 -429.78706717 809.80118123 -429.8132782 806.57839966 C-429.80731659 805.12157172 -429.80731659 805.12157172 -429.80123454 803.63531291 C-429.79160327 800.37798328 -429.80343501 797.12108705 -429.81518555 793.86376953 C-429.81275783 791.52959023 -429.80903871 789.19541196 -429.80412292 786.86123657 C-429.79470656 780.51823435 -429.80414632 774.17538623 -429.81745505 767.83239603 C-429.82761611 761.86961893 -429.82515662 755.90685652 -429.82325254 749.94407307 C-429.82006296 738.12626354 -429.8317275 726.3085143 -429.85131836 714.49072266 C-429.87031372 703.02911543 -429.87740811 691.56757887 -429.87182617 680.10595703 C-429.86576414 667.62165343 -429.86595388 655.1373809 -429.877312 642.65307987 C-429.88329347 636.04600723 -429.88698224 629.43895784 -429.8843441 622.83188248 C-429.88246003 616.61848427 -429.89057442 610.40517671 -429.9064045 604.19179916 C-429.91064621 601.91135788 -429.91149866 599.6309074 -429.90871429 597.35046387 C-429.90549006 594.23737822 -429.91458079 591.12456298 -429.92680359 588.01150513 C-429.92302427 587.10925992 -429.91924494 586.20701472 -429.91535109 585.27742875 C-429.92532465 576.49262774 -429.92532465 576.49262774 -434.1875 569.16796875 C-443.12416548 566.39452084 -452.10364496 567.23106537 -461.25 568.23046875 Z M498.0625 570.375 C494.73847485 575.14289857 495.66418842 582.28899575 495.66532898 587.88452148 C495.66165229 588.8573001 495.6579756 589.83007872 495.6541875 590.83233547 C495.64318286 594.08874987 495.63931237 597.34513232 495.63549805 600.6015625 C495.62923124 602.9375112 495.62258425 605.2734589 495.61558533 607.60940552 C495.59457808 615.27475291 495.58418984 622.94010043 495.57421875 630.60546875 C495.57017072 633.24461884 495.56605379 635.88376883 495.56186867 638.5229187 C495.54500882 649.49658415 495.5303714 660.47024754 495.52311993 671.44392395 C495.52121016 674.28781129 495.5192898 677.13169863 495.51733398 679.97558594 C495.51685024 680.68238538 495.5163665 681.38918483 495.5158681 682.11740243 C495.50755994 693.57816886 495.48220484 705.0388312 495.44975331 716.49955213 C495.41669044 728.27224234 495.39867217 740.04487958 495.39547569 751.81761646 C495.39312201 758.42526404 495.38411923 765.03274671 495.35901451 771.64035034 C495.33579299 777.85216074 495.33147681 784.0636969 495.34177589 790.2755394 C495.34227271 792.55641465 495.33590949 794.83730314 495.32221985 797.11813736 C495.30458786 800.22956151 495.31156458 803.33999203 495.32475281 806.45141602 C495.31378356 807.35589194 495.30281432 808.26036787 495.29151267 809.19225216 C495.34770552 814.67535909 496.15178159 817.81867037 499.8125 822.16796875 C501.77668837 823.77163262 501.77668837 823.77163262 503.875 824.85546875 C506.02366044 826.05558427 507.64133472 826.97928261 509.30078125 828.80859375 C510.7209043 830.33792934 510.7209043 830.33792934 512.7578125 830.453125 C518.46474716 829.87015856 521.76663532 828.08493618 526.3515625 824.72265625 C529.97906303 822.43099719 533.82191974 821.32584971 537.91796875 820.125 C544.00010054 818.11403875 548.0010221 815.40982356 552.1875 810.60546875 C552.65792725 810.07679199 553.12835449 809.54811523 553.61303711 809.00341797 C555.02629478 807.40273387 556.42192979 805.78837698 557.8125 804.16796875 C558.61042969 803.24371094 559.40835937 802.31945312 560.23046875 801.3671875 C574.23937152 784.55140075 570.12851812 757.49181638 570.11408257 736.71833277 C570.11299534 733.60780805 570.11793989 730.49730294 570.122688 727.38678253 C570.13369393 720.0324162 570.13427109 712.67810099 570.12817383 705.32373047 C570.12213832 697.80911226 570.13445507 690.2946815 570.1557439 682.78009522 C570.1735175 676.25960917 570.17933687 669.73918193 570.17610615 663.21867263 C570.17431842 659.35443043 570.17667152 655.49032204 570.19082069 651.62610245 C571.72962687 622.56873988 571.72962687 622.56873988 564.8125 595.16796875 C563.86375 594.54921875 562.915 593.93046875 561.9375 593.29296875 C558.67961364 591.07760602 557.8068349 589.38629817 556.0703125 585.95703125 C554.00024344 583.01264731 551.00833979 581.55044018 547.96875 579.71484375 C545.71893153 578.10084354 544.74606907 576.78795957 543.375 574.41796875 C541.44859107 571.50595526 540.10523785 570.60254742 536.6875 569.85546875 C534.73307395 569.59507366 532.7736057 569.37205511 530.8125 569.16796875 C529.3277799 568.96342704 527.84343207 568.75617307 526.359375 568.546875 C511.70850052 566.19374451 511.70850052 566.19374451 498.0625 570.375 Z M115.8125 1070.16796875 C113.89478372 1072.22135537 113.89478372 1072.22135537 112.8125 1075.16796875 C112.1561479 1076.54792214 111.4888091 1077.92268577 110.8125 1079.29296875 C110.3484375 1080.28683594 110.3484375 1080.28683594 109.875 1081.30078125 C108.8125 1083.16796875 108.8125 1083.16796875 107.28125 1084.54296875 C104.07518476 1088.09010477 103.85025862 1093.55512445 103.8125 1098.16796875 C105.87395926 1100.97994294 105.87395926 1100.97994294 108.8125 1103.16796875 C109.97552806 1105.46171853 110.9075486 1107.7766144 111.8203125 1110.1796875 C112.7726704 1112.50023112 112.7726704 1112.50023112 115.8125 1114.16796875 C121.76766263 1115.19462884 127.61860729 1115.31633404 133.64990234 1115.31323242 C134.60061111 1115.31659103 135.55131989 1115.31994965 136.53083801 1115.32341003 C139.6533847 1115.33285851 142.77587743 1115.33485997 145.8984375 1115.3359375 C148.08265199 1115.33915398 150.26686627 1115.34251835 152.45108032 1115.34602356 C157.02207946 1115.35199932 161.59305973 1115.35386502 166.1640625 1115.35327148 C172.00332252 1115.35316987 177.84246091 1115.36682806 183.68169212 1115.38404369 C188.19087269 1115.39519465 192.70002413 1115.39718975 197.20921707 1115.39666176 C199.36125737 1115.39783697 201.51329854 1115.40223284 203.66532516 1115.40999413 C206.68240495 1115.419858 209.69922407 1115.41689097 212.71630859 1115.41088867 C213.59351059 1115.41650818 214.47071259 1115.42212769 215.37449646 1115.42791748 C221.28219463 1115.39824774 227.14608494 1114.95183422 232.8125 1113.16796875 C234.9280391 1111.11504121 234.9280391 1111.11504121 235.8125 1108.16796875 C236.06257812 1107.50796875 236.31265625 1106.84796875 236.5703125 1106.16796875 C237.08915403 1104.79782412 237.58938154 1103.42041445 238.06640625 1102.03515625 C238.8125 1100.16796875 238.8125 1100.16796875 240.8125 1097.16796875 C240.55078932 1090.19237262 239.00870597 1084.76291004 234.8125 1079.16796875 C234.41945159 1077.75620305 234.04531387 1076.33907349 233.6875 1074.91796875 C233.06205564 1072.92927606 233.06205564 1072.92927606 231.8125 1071.16796875 C225.59292486 1068.71829186 218.40284232 1068.88234662 211.80810547 1068.92504883 C210.39141571 1068.92220131 210.39141571 1068.92220131 208.94610596 1068.91929626 C205.85721245 1068.91562361 202.76855973 1068.9262421 199.6796875 1068.9375 C197.51596097 1068.93869387 195.35223392 1068.93914452 193.18850708 1068.93888855 C188.66811854 1068.94044734 184.14780987 1068.94869131 179.62744141 1068.9621582 C173.84636228 1068.97916737 168.06537055 1068.98297154 162.28426933 1068.98221302 C157.82149427 1068.98248548 153.35873814 1068.98797853 148.89596939 1068.99521446 C146.76461047 1068.99838573 144.63324942 1069.00036492 142.50188828 1069.00110817 C139.52059049 1069.003287 136.53938357 1069.01206381 133.55810547 1069.02270508 C132.68620575 1069.02225189 131.81430603 1069.02179871 130.91598511 1069.02133179 C125.7988671 1069.04791022 120.85859311 1069.27440855 115.8125 1070.16796875 Z " fill="#060304" transform="translate(607.1875,47.83203125)"/>
<path d="M0 0 C4.67428827 0.00691586 9.34854601 -0.00375141 14.02282774 -0.01193976 C23.13402137 -0.02514881 32.24514007 -0.02245733 41.35633641 -0.01370184 C48.77428233 -0.00687404 56.19220753 -0.00603034 63.6101557 -0.00927329 C65.20525696 -0.00996284 65.20525696 -0.00996284 66.83258249 -0.01066632 C68.99414754 -0.01162568 71.15571258 -0.01259832 73.31727762 -0.01358409 C93.49765074 -0.02210051 113.67798272 -0.01236333 133.85834909 0.00381701 C151.10082304 0.0172148 168.34323636 0.01488919 185.58570921 0.00106072 C205.70166198 -0.01506517 225.81757885 -0.02127486 245.93353719 -0.01210248 C248.08661778 -0.01114703 250.23969838 -0.01020391 252.39277899 -0.00927329 C253.45160637 -0.00881046 254.51043375 -0.00834764 255.6013468 -0.00787079 C262.9930796 -0.00530167 270.38478925 -0.00960652 277.77651846 -0.01671195 C286.8094143 -0.0252057 295.84223214 -0.02268419 304.87511926 -0.00686972 C309.46657171 0.00090906 314.05789508 0.00428727 318.64934599 -0.00581717 C335.79391628 -0.04014305 352.84018691 0.16740596 369.92825377 1.66643548 C371.23051026 1.77426374 372.53276675 1.882092 373.87448555 1.99318779 C384.20295747 3.02042124 390.7214176 5.04521637 398.06837523 12.39217401 C400.63290193 13.41080732 402.99228098 14.23600084 405.63087523 14.95467401 C410.37249874 16.26638413 413.88805954 17.43221781 417.06837523 21.39217401 C417.46025023 22.21717401 417.85212523 23.04217401 418.25587523 23.89217401 C420.65766374 27.20498574 423.25836196 27.92599766 426.97853148 29.42733026 C430.35765144 30.98740994 431.55851919 33.09792405 432.88087523 36.45467401 C434.00425602 38.68162064 434.00425602 38.68162064 436.94337523 39.76717401 C441.40934801 42.08947985 443.36711106 45.28838151 444.94337523 50.01717401 C445.94034893 52.67050434 445.94034893 52.67050434 448.94337523 54.20467401 C453.57038682 57.44358212 454.88948914 61.52987854 456.99025023 66.63045526 C459.02348729 71.4552268 461.28303292 75.290091 464.70118773 79.27498651 C479.18865661 101.70986689 471.5104547 148.35416353 471.47427549 173.68620033 C471.46735316 178.66510813 471.46659468 183.64398519 471.46982253 188.62289643 C471.47028223 189.3401078 471.47074192 190.05731916 471.47121555 190.79626421 C471.47217503 192.25465991 471.47314767 193.71305562 471.47413333 195.17145131 C471.48262166 208.7424857 471.47295644 222.3134586 471.45673223 235.8844829 C471.44332638 247.45519249 471.44567221 259.02581173 471.45948851 270.59651971 C471.47564662 284.13415856 471.48180731 297.67174402 471.47265172 311.20939118 C471.47169637 312.6605604 471.47075325 314.11172963 471.46982253 315.56289887 C471.4693597 316.27633962 471.46889687 316.98978036 471.46842002 317.72484052 C471.46586123 322.68242806 471.47013247 327.63998088 471.47726119 332.59756303 C471.48669436 339.30306212 471.47971024 346.00836787 471.46257842 352.7138598 C471.45867252 355.14795237 471.4596436 357.58205952 471.46636641 360.01614594 C471.49904745 373.07024948 471.02383824 385.95419419 469.73161376 398.95011163 C469.61540659 400.14562164 469.49919942 401.34113165 469.37947083 402.57286924 C467.3602579 421.10029133 467.3602579 421.10029133 461.06837523 427.39217401 C460.07837523 427.88717401 460.07837523 427.88717401 459.06837523 428.39217401 C458.27958694 430.76149314 457.56816574 433.11890832 456.88087523 435.51717401 C455.13394074 441.18724699 453.44805869 444.88903213 448.82618773 448.79061151 C446.79550667 450.64078758 445.48299803 452.57981947 444.00587523 454.89217401 C439.81440392 461.40609644 435.46600058 466.33326948 429.15821898 470.84920526 C425.10935618 473.83855256 420.98594858 477.14303177 417.71290648 480.98201776 C414.69302006 483.57151657 410.65598388 484.10730989 406.88087523 485.13436151 C403.43557582 486.67517596 402.88186385 488.16928934 401.06837523 491.39217401 C397.52033453 493.91958815 394.483179 494.9149427 390.20900023 495.60311151 C389.0926721 495.79647088 387.97634398 495.98983026 386.82618773 496.18904901 C384.50410581 496.57175293 382.18118961 496.94943175 379.85743773 497.32186151 C373.50631142 498.43148357 368.41856472 499.79760149 362.96192992 503.29305291 C358.88309601 505.66062773 354.90482083 505.51050043 350.26326048 505.49224114 C349.57945051 505.49097887 348.89564054 505.4897166 348.19110906 505.48841608 C345.90048249 505.48303995 343.60995016 505.47051551 341.31935179 505.45809197 C339.67659199 505.45289834 338.03383059 505.44819029 336.3910681 505.44393182 C332.85305138 505.43399095 329.31506117 505.4211411 325.77706206 505.40620828 C320.1793322 505.38314068 314.58160594 505.36983964 308.98384154 505.35851312 C293.06568405 505.32508411 277.14757903 505.28350307 261.22950804 505.22078729 C252.43832534 505.18623281 243.6471817 505.16244377 234.85593832 505.15057886 C230.20550565 505.14381533 225.55523864 505.13138841 220.90486968 505.1055491 C216.52837396 505.08123281 212.1520668 505.07090479 207.77550566 505.07114434 C206.1727388 505.06872931 204.56996984 505.06118234 202.96725523 505.04801583 C191.68719111 504.94496513 191.68719111 504.94496513 181.06837523 508.39217401 C180.13638304 508.69510369 179.20439085 508.99803338 178.24415648 509.31014276 C175.50221064 510.67373162 174.73233195 512.05062038 173.25587523 514.70467401 C170.62773457 518.96689176 168.12349199 520.84686592 163.79884398 523.22420526 C161.77825058 524.3754156 161.77825058 524.3754156 160.69337523 527.26717401 C158.84963498 530.81282833 157.36523867 531.73543625 154.06837523 533.89217401 C149.8653065 536.64548859 148.00020484 538.66992385 146.06837523 543.39217401 C144.01645815 545.23889937 142.11182189 546.37100768 139.63087523 547.57967401 C137.00245564 549.43880006 136.28460947 550.53289431 134.75587523 553.26717401 C132.89333562 556.4987096 131.33160592 558.0921931 128.06837523 559.89217401 C124.84200749 561.67389948 123.3501007 563.16580626 121.56837523 566.39217401 C119.34622385 570.41606975 116.92673703 571.8659145 112.97462523 574.04842401 C110.76321513 575.60728686 109.86914552 577.03672509 108.56837523 579.39217401 C106.34831084 583.4122906 103.93427991 584.86487817 99.98243773 587.04061151 C97.15102771 589.03993369 95.93052292 591.63900476 94.27540648 594.62264276 C93.06837523 596.39217401 93.06837523 596.39217401 90.13087523 597.82967401 C86.73188525 599.56385257 86.15075968 600.57937116 84.25587523 603.76717401 C81.18031205 608.76802342 77.48416398 611.23669008 72.06837523 613.39217401 C71.40837523 613.39217401 70.74837523 613.39217401 70.06837523 613.39217401 C69.86212523 614.13467401 69.65587523 614.87717401 69.44337523 615.64217401 C67.63874826 619.25142794 65.70876936 620.86110572 62.06837523 622.39217401 C57.4434606 623.65198731 52.78834673 624.56658635 48.06837523 625.39217401 C46.92948851 625.59326776 46.92948851 625.59326776 45.76759398 625.79842401 C36.44783926 627.18770421 27.037149 626.38996826 17.75587523 625.14217401 C16.8064807 625.03260369 15.85708617 624.92303338 14.8789221 624.81014276 C9.23484196 624.06179996 5.44648578 623.10435836 1.06837523 619.39217401 C0.63525023 618.56717401 0.20212523 617.74217401 -0.24412477 616.89217401 C-2.17779666 614.02747491 -3.03958505 613.80785485 -6.18162477 612.64217401 C-11.04251786 610.70886425 -13.3023433 607.95741856 -16.22849977 603.70858026 C-17.90797152 601.25376979 -17.90797152 601.25376979 -20.47459352 599.14217401 C-23.64565569 595.59300427 -24.41208488 592.38049158 -25.49412477 587.82967401 C-26.71498383 582.07384852 -26.71498383 582.07384852 -29.95896852 577.36483026 C-34.80019947 572.52359931 -34.16059436 564.56047457 -34.18243349 558.15291619 C-34.17829942 556.99437127 -34.17416536 555.83582635 -34.16990602 554.64217401 C-34.18531916 552.15258518 -34.2016223 549.66300173 -34.21873415 547.17342401 C-34.23520212 543.27616718 -34.24410147 539.37930664 -34.23704469 535.48201776 C-34.23442206 531.70161995 -34.26255537 527.92241253 -34.29490602 524.14217401 C-34.27959589 522.40435662 -34.27959589 522.40435662 -34.26397645 520.63143182 C-34.34686369 513.75081012 -35.03244122 508.51927267 -39.93162477 503.39217401 C-42.2579896 501.86773841 -42.2579896 501.86773841 -44.85349977 501.40389276 C-45.78871461 501.17443963 -46.72392946 500.94498651 -47.68748415 500.70858026 C-48.67555055 500.50104119 -49.66361696 500.29350213 -50.68162477 500.07967401 C-51.70062868 499.83733026 -52.71963258 499.59498651 -53.7695154 499.34529901 C-59.95383524 497.91069189 -66.1580885 496.84063084 -72.43162477 495.89217401 C-79.89439645 494.76295024 -83.38818098 492.57612367 -88.27146852 486.81014276 C-90.41915783 484.97576341 -92.41317024 484.48707271 -95.11912477 483.70467401 C-100.46528869 481.87795045 -103.41367869 479.4082637 -107.16990602 475.27108026 C-109.47052883 472.81742266 -112.11302091 471.21252233 -114.93162477 469.39217401 C-121.30678734 464.56171202 -125.52959402 459.01210771 -129.93162477 452.39217401 C-131.82461627 449.90424232 -133.51456418 447.74609395 -135.89256227 445.72811151 C-138.91671273 442.26366327 -139.74166466 438.22532893 -140.9101404 433.88045526 C-142.30281652 429.18193176 -143.96272147 427.1754784 -147.93162477 424.39217401 C-151.49586861 418.18774955 -152.0617121 411.39584125 -152.93162477 404.39217401 C-153.01691419 403.71703055 -153.1022036 403.04188709 -153.19007754 402.34628475 C-154.99477556 387.64640746 -155.22309091 373.08308838 -155.20628297 358.28743768 C-155.21064079 355.72397997 -155.21582746 353.16052355 -155.22177064 350.59706903 C-155.23368719 344.4037427 -155.23632529 338.21047628 -155.23397038 332.01714077 C-155.23217318 326.96925283 -155.23396656 321.92137792 -155.23819482 316.87349153 C-155.23879001 316.14968101 -155.2393852 315.42587049 -155.23999843 314.68012631 C-155.24121045 313.20868966 -155.24242458 311.73725301 -155.2436408 310.26581637 C-155.25447458 296.51834008 -155.25237456 282.77088842 -155.24625596 269.02341077 C-155.24109893 256.52316509 -155.25231758 244.02299762 -155.27135418 231.52276739 C-155.29086189 218.61158553 -155.29896562 205.70044041 -155.29523093 192.78924376 C-155.29333723 185.57127612 -155.29571114 178.35337553 -155.30994546 171.13542008 C-155.4683655 85.70739841 -155.4683655 85.70739841 -146.11912477 76.26717401 C-142.43290594 72.4075934 -140.87623896 67.68890656 -139.19993532 62.72176385 C-137.60392912 58.2432981 -135.87386803 56.01828613 -131.93162477 53.39217401 C-128.71204759 51.24578922 -128.55619983 50.95727001 -127.55662477 47.51717401 C-126.17744418 43.53126988 -124.55802081 41.69183979 -120.93162477 39.39217401 C-120.23037477 39.10342401 -119.52912477 38.81467401 -118.80662477 38.51717401 C-116.00949252 36.83889465 -115.34312874 34.27399462 -113.93162477 31.39217401 C-111.40860406 28.77570808 -109.26906838 28.22457761 -105.80662477 27.57967401 C-103.71131705 27.18501985 -103.71131705 27.18501985 -101.93162477 26.39217401 C-100.66913571 23.52153317 -100.66913571 23.52153317 -99.93162477 20.39217401 C-96.26863462 16.80325167 -93.06455615 15.68653461 -88.11912477 14.57967401 C-82.34279438 13.0646699 -78.82461644 11.35205652 -74.77537477 6.97811151 C-60.18875191 -5.56885646 -18.43151257 -0.04053264 0 0 Z M-48.71240938 72.22386003 C-49.46698266 72.38569832 -50.22155595 72.54753661 -50.9989951 72.71427909 C-57.26612763 74.19856158 -60.79944878 76.61492982 -64.93162477 81.39217401 C-66.48772113 82.940304 -68.05048924 84.48175063 -69.61912477 86.01717401 C-70.36807008 86.77900994 -71.1170154 87.54084588 -71.88865602 88.32576776 C-73.49164589 89.94714757 -75.14101549 91.52269142 -76.80662477 93.07967401 C-81.41481327 98.09446737 -82.65195517 103.61900181 -83.5948633 110.14469171 C-83.7844365 111.44813868 -83.7844365 111.44813868 -83.97783947 112.77791792 C-85.4912556 124.26717846 -85.35123892 135.78472962 -85.31980836 147.3518908 C-85.32388321 149.89865618 -85.32923017 152.44541979 -85.33573854 154.99218011 C-85.34790497 161.14073346 -85.34625386 167.28914208 -85.33750062 173.43769702 C-85.33067754 178.4408964 -85.32982711 183.44406506 -85.33307207 188.44726777 C-85.33353177 189.16401897 -85.33399146 189.88077016 -85.33446509 190.61924109 C-85.33542443 192.07604999 -85.33639707 193.53285887 -85.33738287 194.98966775 C-85.34590046 208.59176028 -85.33615906 222.19379176 -85.31998177 235.79587428 C-85.30657324 247.42964854 -85.30891815 259.06333298 -85.32273805 270.69710565 C-85.33884349 284.26091042 -85.34508586 297.824662 -85.33590126 311.388475 C-85.33494577 312.8384925 -85.33400265 314.28851002 -85.33307207 315.73852754 C-85.33260924 316.45166846 -85.33214641 317.16480938 -85.33166956 317.89956063 C-85.32909516 322.88969771 -85.33341674 327.87980062 -85.34051073 332.86993241 C-85.3498716 339.60150026 -85.34307487 346.33287392 -85.32582796 353.06443429 C-85.32188807 355.52290784 -85.32295385 357.98139576 -85.32961595 360.43986344 C-85.362408 373.77847713 -84.90562495 386.35112689 -81.93162477 399.39217401 C-81.71886589 400.35501148 -81.506107 401.31784896 -81.28690088 402.30986333 C-79.96825457 407.82425024 -77.48423232 409.7958372 -72.80662477 412.79451776 C-70.5204053 414.74256726 -70.24940811 416.08931782 -69.49412477 418.95467401 C-68.53750033 421.58982003 -67.75067854 422.99619089 -65.18943727 424.23445916 C-61.51698004 425.52715728 -57.78721605 426.44357912 -53.99803102 427.32186151 C-50.52699893 428.13417999 -47.93151355 429.42962994 -44.93162477 431.39217401 C-44.27162477 431.39217401 -43.61162477 431.39217401 -42.93162477 431.39217401 C-42.69725709 432.03662469 -42.46288942 432.68107537 -42.22141969 433.34505486 C-41.12829346 435.57774291 -41.12829346 435.57774291 -38.88597047 436.00374627 C-38.0309192 436.05071649 -37.17586793 436.0976867 -36.29490602 436.14608026 C-35.30571168 436.20167108 -34.31651735 436.2572619 -33.29734743 436.31453729 C-26.21566118 436.47788969 -19.13711977 436.41100197 -12.05540407 436.29622674 C17.05444138 435.85710685 17.05444138 435.85710685 28.06837523 446.39217401 C35.67951925 457.3860487 35.22375007 471.33147545 35.20118773 484.22029901 C35.20214446 485.44512994 35.20310118 486.66996087 35.2040869 487.93190789 C35.20476525 490.52055181 35.20293506 493.10919745 35.19874632 495.69783807 C35.19344876 499.58817829 35.19867428 503.47840011 35.20509398 507.36873651 C35.20568331 519.66575061 35.182032 531.91346843 34.15409911 544.17617059 C33.66203784 548.48674879 33.66203784 548.48674879 35.57328856 552.13222528 C36.06666716 552.54800836 36.56004576 552.96379144 37.06837523 553.39217401 C40.03468279 551.86893499 41.79008886 550.8640509 43.50587523 547.95467401 C45.06837523 545.39217401 45.06837523 545.39217401 47.88087523 543.64217401 C50.98168735 541.45336545 52.01872582 540.15325125 53.94337523 537.01717401 C56.51607292 532.88465174 59.20723514 530.58123555 63.18946898 527.86092401 C65.69228751 525.90445879 67.14050824 523.61404051 68.86134398 520.97811151 C70.7692533 518.47127919 73.44966561 517.10235172 76.06837523 515.39217401 C80.33323358 511.4920175 80.33323358 511.4920175 82.06837523 506.39217401 C82.80442992 506.15498651 83.5404846 505.91779901 84.29884398 505.67342401 C87.49553195 504.19456131 89.09115527 502.54842164 91.38087523 499.89217401 C92.07825804 499.09811151 92.77564085 498.30404901 93.49415648 497.48592401 C95.26869321 495.56233497 95.26869321 495.56233497 95.06837523 493.39217401 C95.80442992 493.15498651 96.5404846 492.91779901 97.29884398 492.67342401 C100.49553195 491.19456131 102.09115527 489.54842164 104.38087523 486.89217401 C105.07825804 486.09811151 105.77564085 485.30404901 106.49415648 484.48592401 C108.26869321 482.56233497 108.26869321 482.56233497 108.06837523 480.39217401 C108.79025023 480.14467401 109.51212523 479.89717401 110.25587523 479.64217401 C114.58221197 477.71935768 117.34449094 475.54040425 119.88087523 471.51717401 C121.88520538 468.65384523 123.16764743 467.45544313 125.94337523 465.51717401 C129.71514162 462.86296803 132.00963857 459.96236211 134.63087523 456.20858026 C136.68534986 453.61257292 139.28814861 452.14492557 142.06837523 450.39217401 C143.45069966 448.76590997 144.78775038 447.0996738 146.06837523 445.39217401 C149.12559664 441.83230133 151.71028592 440.52799555 156.19337523 439.20467401 C157.77505492 438.71934197 157.77505492 438.71934197 159.38868773 438.22420526 C169.43351209 435.95292331 179.67153205 436.2601676 189.90992796 436.29451776 C191.59796666 436.29643995 193.28600593 436.29790233 194.9740454 436.2989428 C198.59215871 436.30208965 202.21024833 436.30833682 205.82835257 436.31700921 C211.55761467 436.33059995 217.28686907 436.33644019 223.01614439 436.34114861 C236.21214988 436.35316183 249.40813493 436.37521572 262.60412657 436.39737725 C274.70188352 436.41759256 286.79963357 436.43565326 298.8974039 436.44559216 C304.58447773 436.45055358 310.27151543 436.46038175 315.95857477 436.47402215 C319.50560745 436.48151887 323.05263528 436.48480478 326.59967482 436.48698831 C328.23503663 436.48884902 329.87039761 436.49242711 331.50575125 436.49792123 C338.5069234 436.52068748 345.51167507 436.52452867 352.50405943 436.13607049 C353.34865753 436.09054543 354.19325562 436.04502038 355.06344759 435.99811578 C357.25781054 435.58439321 357.25781054 435.58439321 358.21009028 433.41623712 C358.49332431 432.74829629 358.77655835 432.08035546 359.06837523 431.39217401 C361.36525023 430.26326776 361.36525023 430.26326776 364.06837523 429.39217401 C364.91915648 429.07377557 365.76993773 428.75537713 366.64650023 428.42733026 C367.96907835 427.94586541 367.96907835 427.94586541 369.31837523 427.45467401 C370.27228148 427.10018182 371.22618773 426.74568963 372.20900023 426.38045526 C375.06837523 425.39217401 375.06837523 425.39217401 377.67775023 424.74764276 C382.16892203 423.73249828 382.16892203 423.73249828 385.18556273 420.53279901 C385.97346322 418.42716203 385.97346322 418.42716203 386.43556273 416.32967401 C387.53823777 412.95358254 389.54349285 411.67109312 392.61915648 410.03670526 C397.76093433 406.58425155 398.44173537 399.3226429 399.67322123 393.56362367 C401.64263162 381.48711336 401.35688388 369.36323585 401.34303343 357.16121697 C401.34738671 354.62020492 401.3525719 352.07919418 401.3585211 349.53818536 C401.37047636 343.37981246 401.37307021 337.22149976 401.37072084 331.06311755 C401.36892938 326.04979322 401.37070496 321.03648203 401.37494528 316.02315927 C401.37583807 314.94811232 401.37583807 314.94811232 401.37674889 313.85134725 C401.37796079 312.39478635 401.37917493 310.93822545 401.38039126 309.48166455 C401.39124135 295.85377128 401.38911673 282.22590282 401.38300642 268.59800817 C401.37784323 256.17401453 401.38908142 243.75009943 401.40810464 231.32612132 C401.42755308 218.52479365 401.43572658 205.72350301 401.43198138 192.92216051 C401.43007945 185.75307981 401.43245733 178.58406586 401.44669592 171.41499734 C401.45996552 164.66627307 401.45725531 157.91772994 401.44428504 151.16899705 C401.44193673 148.70694764 401.44459042 146.24488698 401.45290816 143.7828505 C401.48831038 132.47939345 401.36254106 121.34522166 399.73260558 110.14171624 C399.61633859 109.33764773 399.50007161 108.53357922 399.38028139 107.705145 C398.15441181 100.31177918 395.5564666 95.56200265 390.06837523 90.39217401 C388.92301402 89.17648062 387.78415258 87.95464421 386.65040648 86.72811151 C385.39422965 85.40748162 384.13771248 84.08717539 382.88087523 82.76717401 C382.2717932 82.09943963 381.66271117 81.43170526 381.0351721 80.74373651 C376.1876309 75.72037775 371.84933342 73.78217017 365.06837523 72.39217401 C364.12500878 72.15163436 364.12500878 72.15163436 363.16258442 71.90623534 C355.16067358 70.02450697 347.19610027 70.10681413 339.02919066 70.12474847 C337.40821509 70.12100737 335.78724132 70.11640402 334.16627038 70.11101782 C329.73137397 70.09882885 325.29655323 70.09904345 320.86164391 70.10140657 C316.07068952 70.10181579 311.27975906 70.09076547 306.4888159 70.08129144 C297.10874793 70.06470204 287.72870511 70.05918279 278.34862369 70.05806668 C270.71934067 70.05711505 263.09006591 70.05299902 255.46078551 70.04666543 C233.80805854 70.02905719 212.15535136 70.01982569 190.50261718 70.02132638 C189.33612398 70.02140629 188.16963077 70.0214862 186.96778929 70.02156854 C185.79986368 70.0216503 184.63193806 70.02173206 183.42862076 70.0218163 C164.51385948 70.02262866 145.59917794 70.00350237 126.68443972 69.9752918 C107.24103718 69.94652277 87.79767347 69.93275378 68.35424912 69.93447936 C57.4471509 69.93514196 46.54013623 69.92970687 35.63305724 69.90812325 C26.34379121 69.88985832 17.05464658 69.88560746 7.76537031 69.8991421 C3.03196304 69.90564553 -1.70121167 69.90588466 -6.43459642 69.8884356 C-10.78007366 69.87258234 -15.12513636 69.87569182 -19.47060424 69.89300387 C-21.03050951 69.8960471 -22.59044668 69.89254428 -24.15031427 69.88128372 C-32.56208837 69.82465243 -40.47335964 70.44160052 -48.71240938 72.22386003 Z " fill="#060304" transform="translate(481.9316247701645,326.6078259944916)"/>
<path d="M0 0 C2.27497404 1.8958117 3.41532469 3.43173312 5 6 C5 6.66 5 7.32 5 8 C6.051875 8.37125 6.051875 8.37125 7.125 8.75 C12.10250805 10.91413393 16.03986552 13.41139046 19 18 C19.70924636 19.93626954 20.35143048 21.89795861 20.9375 23.875 C22.40889552 28.52596284 24.20105937 31.9881851 27 36 C29.2117445 41.58202183 29.2976034 46.22460127 28 52 C26.6875 55 26.6875 55 25 58 C24.34029165 59.43118547 23.69559425 60.86934422 23.0625 62.3125 C22.7221875 63.075625 22.381875 63.83875 22.03125 64.625 C21.33935762 66.21844911 20.67285254 67.82314523 20.03125 69.4375 C17.55960789 75.49700969 15.17042677 78.61293829 9 81.3125 C5.99484079 83.00290205 5.36070466 83.72170764 3.625 86.5 C0.89551815 90.66004629 -2.26184666 91.8861484 -7 93 C-19.38130252 95.52970498 -35.16556886 95.7621052 -46.1875 89.0625 C-48.09170838 86.89564219 -48.36461952 85.72305922 -49 83 C-50.73142854 81.84077872 -50.73142854 81.84077872 -53 81 C-58.9323399 78.40460129 -61.90226975 75.68679586 -64.37890625 69.625 C-64.76949219 68.42875 -65.16007813 67.2325 -65.5625 66 C-67.00181454 61.62070856 -68.52064606 57.8854533 -71 54 C-73.36103969 48.80571269 -73.2967812 44.45767626 -72 39 C-71.15585014 36.94763564 -70.17987661 35.04866189 -69.109375 33.10546875 C-67.86784904 30.74919236 -66.90208224 28.35694431 -65.9375 25.875 C-62.83146506 18.02564038 -60.38296423 13.70438218 -53.0625 9.1875 C-50.35614339 7.25438813 -49.20145313 6.02124048 -47.3125 3.4375 C-38.56567337 -6.88154103 -11.21552569 -5.91324409 0 0 Z " fill="#060304" transform="translate(662,537)"/>
<path d="M0 0 C2.0625 2.1875 2.0625 2.1875 3.3125 4.625 C5.61072193 7.99025354 8.28632502 9.13530905 11.90625 10.87890625 C17.18809976 14.08437667 18.57403239 19.70770501 20.68359375 25.21484375 C22.12200803 28.31578785 23.91807101 30.54517915 26.0625 33.1875 C29.20052948 40.73653319 28.31115078 48.10052561 26.109375 55.7578125 C25.0625 58.1875 25.0625 58.1875 23.09375 60.6171875 C20.88295463 63.41469395 19.96048933 65.82920286 18.8125 69.1875 C16.74005399 74.41339009 14.94373768 76.66005551 9.98046875 79.18359375 C6.20085075 81.16192741 3.59932261 84.50427123 1 87.8125 C-7.72037156 94.86301317 -21.25538944 94.05860508 -31.9375 93.1875 C-39.88048324 92.0126536 -45.80976652 90.39376227 -50.75 83.75 C-53.20849479 80.87004896 -55.62343189 79.44553214 -58.9375 77.69140625 C-63.89227868 73.96564494 -65.71131889 68.53864086 -67.5 62.8125 C-68.78791033 58.71618815 -70.0965973 54.69109159 -71.8125 50.75 C-74.06857939 43.60574859 -71.63483056 37.83699045 -69.0390625 31.1328125 C-67.88910502 28.05810349 -66.94947139 24.95424681 -66 21.8125 C-63.50002147 14.33186927 -59.45408569 11.42865442 -52.8984375 7.578125 C-50.808733 6.09618316 -49.62417763 4.62495246 -48.125 2.5625 C-39.44474916 -7.9223293 -10.90148605 -6.72644884 0 0 Z " fill="#060304" transform="translate(522.9375,537.8125)"/>
<path d="M0 0 C1.71780561 1.67785664 3.40863211 3.38408643 5.0625 5.125 C7.38308116 7.3350773 8.91755345 8.28177806 11.6875 9.6875 C18.24161475 13.64959197 19.81263528 21.15216743 21.5859375 28.19140625 C22.08998517 30.42468678 22.56795635 32.66411954 23.01171875 34.91015625 C23.57400711 37.82016136 23.57400711 37.82016136 25.6875 40.625 C25.44649265 43.45683637 25.1528641 45.79008205 23.7578125 48.29296875 C21.88263326 52.37866951 21.24027453 56.8574076 20.36328125 61.25 C18.66166365 69.08020783 15.34955941 73.53535156 8.75 78.1875 C5.59539078 80.42483979 2.75920323 82.55319163 0.0234375 85.29296875 C-6.06300565 91.3692339 -14.338301 91.76949842 -22.5 91.8125 C-40.59612659 91.6525146 -40.59612659 91.6525146 -47.3125 85.625 C-47.98599161 83.96107955 -48.6534159 82.29467972 -49.3125 80.625 C-51.60784258 79.48954438 -51.60784258 79.48954438 -54.3125 78.625 C-60.59557842 74.85515295 -63.15471072 71.44271442 -65.8125 64.6875 C-67.3691888 60.74089473 -69.12836644 57.25357388 -71.3125 53.625 C-74.76039704 45.91357437 -74.38672277 40.36964967 -71.5546875 32.484375 C-70.14005945 29.22806139 -68.35078949 26.52801837 -66.3125 23.625 C-65.59343568 21.62883302 -64.88633862 19.62833739 -64.1875 17.625 C-61.85291161 11.77411799 -59.31844118 9.80276056 -53.78125 7.05859375 C-51.06992131 5.48413548 -49.78559088 3.94238788 -47.9375 1.4375 C-38.7919227 -9.58355283 -10.76697663 -8.53282898 0 0 Z " fill="#060304" transform="translate(803.3125,539.375)"/>
</svg>
