<svg xmlns="http://www.w3.org/2000/svg" viewBox="0 0 586.9 586.79"><defs><style>.cls-1{fill:#991b1f;}</style></defs><g id="Layer_2" data-name="Layer 2"><g id="Layer_1-2" data-name="Layer 1"><path class="cls-1" d="M0,563.89c4-8.58,10.63-12.17,20.19-11.91,15,.42,15,.09,15-15q0-68.42,0-136.85c0-12.86,5.34-19.11,18.14-20.35,7-.68,14.12-.15,21.16-.59,14.07-.87,28.15-1.72,42.17-3.17,13.55-1.41,22.25,5.78,22.26,19.37q0,74.43,0,148.87c0,7.81,0,7.81,8,7.83h17.75c8,0,8,0,8-7.79v-158c0-14.76,3.6-18.94,17.77-22.9,20.2-5.66,40.31-11.66,60.36-17.82,15-4.63,25.6,2.72,25.61,18.34q0,90.18,0,180.36c0,7.82,0,7.82,7.94,7.84h17.18c8.55,0,8.57,0,8.57-8.35V347.35c0-4.77.15-9.55,0-14.31-.28-7.78,3.52-13.06,9.91-16.79q33.09-19.32,66.25-38.57c13.29-7.75,27.58.35,27.59,15.82q.08,124.81,0,249.65c0,8.94,0,8.94,9.11,9,6.49,0,13-.12,19.47,0,3.61.09,5.39-1.21,5.12-5-.14-1.9,0-3.81,0-5.72q0-149.44-.12-298.89c0-8.1,2.34-14.28,8.4-19.62,23.11-20.36,43.37-43.45,63.24-66.9,6.19-7.3,13.4-9.35,21.39-6.31,7.29,2.78,10.83,8.69,10.83,18.27q0,187.52,0,375c0,9.07,0,9.07,9,9.08,2.86,0,5.72,0,8.59,0,8.68.13,15.19,4.75,17.31,12.24,2.35,8.29-.7,15.94-8.25,20.66-1,.61-2,1.19-2.93,1.78H11.45L0,575.34Z"/><path class="cls-1" d="M0,315.35C5.57,303.26,16,303,27.19,303.77a526.56,526.56,0,0,0,97.64-2,524.29,524.29,0,0,0,98.79-21.44,525.86,525.86,0,0,0,121.45-57,512.69,512.69,0,0,0,104.32-87c25.92-28.25,51-57.26,76.44-85.94,4.14-4.66,8.22-9.37,13.1-14.93-3-.17-4.8-.36-6.61-.36-11.07,0-22.15.17-33.21-.12C489.85,34.73,483,27,483,17.55,483,7.83,489.58.26,499,.17q35.79-.36,71.57,0a15.94,15.94,0,0,1,15.82,15.76q.5,36.07.16,72.14c-.09,9.23-8.08,15.84-17.71,15.72a17,17,0,0,1-17.09-15.89c-.21-3.59,0-7.2,0-12.46-7,7.82-13,14.59-19.08,21.25-27.44,29.95-53.94,60.85-82.64,89.53C414.9,221.32,374.13,249.32,330.42,273,277.1,301.81,220.55,321.28,161,332.25,119.14,340,77,342,34.52,340.64c-5.14-.17-10.26-.83-15.4-1.07C10.6,339.17,4.24,335.33,0,328Z"/></g></g></svg>