<svg xmlns="http://www.w3.org/2000/svg" viewBox="0 0 589.57 589.89"><defs><style>.cls-1{fill:#991b1f;}</style></defs><g id="Layer_2" data-name="Layer 2"><g id="Layer_1-2" data-name="Layer 1"><path class="cls-1" d="M288.84,589.89c-6.93-3.19-11.26-8.14-12.12-16.12-.18-1.63-2.88-3.77-4.81-4.31-24.13-6.83-42.88-20.66-56.08-42.05-12.11-19.63-14.28-41.31-13.13-63.63.07-1.44,2.59-3,4.29-4,1-.59,2.62-.15,4-.15H378.22c8.6,0,8.38,0,8.67,8.63.75,22.73-2.93,44.3-16.11,63.44-12.65,18.35-29.63,30.83-51.12,36.84-4.52,1.27-7.23,2.85-7.8,8.16-.72,6.63-5.48,10.7-11.51,13.2Z"/><path class="cls-1" d="M0,207.84c4.93-9.16,12.74-12.49,22.88-11.89,7.05.42,14.14,0,21.21.13,11.25.3,18.34,7.19,18.44,17.67.12,10.95-6.7,18.05-18.24,18.43-8.78.3-17.59.28-26.37,0S3.21,227.49,0,219.35Z"/><path class="cls-1" d="M294.49,426.81c-28.57,0-57.14-.11-85.72.1-5.06,0-7.45-1.19-8.51-6.56-5-25.45-17.52-46.74-36.62-64.33-34.63-31.9-54.71-71.43-61.21-118-.91-6.49-.18-7.47,6.36-7.48,36.05,0,72.11-.14,108.16.09A23.6,23.6,0,0,0,235.3,223c10-10.36,20.38-20.29,30.37-30.64,3.09-3.2,5.62-3.84,10-2.19,35.25,13.36,73.72-13.81,72.66-51.1-.75-26.18-22.38-50.12-46.75-51.73-31.17-2.07-54.92,16-59.76,44.9a49.15,49.15,0,0,0,3.2,27.54c1.49,3.62,1,5.91-1.78,8.55-8.82,8.54-17.28,17.45-26.2,25.87a12.88,12.88,0,0,1-8,3.43c-33.56.23-67.12.11-100.67.21-4.57,0-6.77-1.13-6-6.28,5.33-35.9,17.28-69.1,40-97.84,29.84-37.79,69-60.44,116.12-68.63,51.65-9,100.51-.45,144.76,28.45,45.53,29.76,71.19,72.88,81.55,125.69.7,3.57,1.18,7.18,1.79,10.76,1.2,7,.62,7.78-6.37,7.79-34.71,0-69.42.32-104.13-.18-10.25-.14-17.91,2.83-24.77,10.41-9,9.94-18.94,19-28.31,28.63-2.62,2.69-4.82,3.25-8.52,1.85-34.57-13.11-71.36,10.09-73.26,47.13-1.65,32.11,24,53.76,49.18,55.75,34.15,2.69,58.72-26,57.77-55.28-.19-6-2.11-12-4-17.82-1.11-3.44-.78-5.6,1.78-8.08,8.8-8.56,17.23-17.5,26.21-25.86a14.67,14.67,0,0,1,9-3.58c33-.25,66-.17,99-.14,6.83,0,7.66,1,6.69,7.77-6.49,45.21-25.5,84.13-59,115.47-16.3,15.25-29,32.57-35.72,54a83.91,83.91,0,0,0-3.05,12.24c-.77,5-3,6.9-8.33,6.85C352,426.67,323.26,426.81,294.49,426.81Z"/><path class="cls-1" d="M136.33,35.7c-.69,9.1-3.79,14.56-10.15,17.79-6.12,3.1-12.7,3.36-17.86-1.18a252.59,252.59,0,0,1-24.06-23.8c-6-6.89-4.49-17.51,1.91-23.46,6.63-6.17,17.29-6.69,24.14-.44a278.71,278.71,0,0,1,21,21.21C134.08,28.92,135.23,33.42,136.33,35.7Z"/><path class="cls-1" d="M100.52,428.15c-9.3-.39-14.64-3.51-17.92-9.9-3.43-6.68-2.86-13.44,1.9-18.83a255.28,255.28,0,0,1,22.71-22.75c6.91-6.09,17-5,23.51,1.36s7.65,16.27,1.44,23.43a260.73,260.73,0,0,1-22.69,22.77C106.72,426.72,102.34,427.4,100.52,428.15Z"/><path class="cls-1" d="M557.58,232.25c-4.41,0-8.83.17-13.22,0-10.54-.5-17.72-7.91-17.71-18.06s7.15-17.69,17.68-18c9.19-.3,18.41-.31,27.6,0,10.57.37,17.46,7.42,17.63,17.4.19,10.49-6.23,17.68-17,18.57-4.95.4-10,.07-14.94.07Z"/><path class="cls-1" d="M488.41,428.26c-2.33-1.23-7.17-2.81-10.73-5.88a251.4,251.4,0,0,1-18.78-18.59c-7.68-8.14-7.69-18.25-.37-25.7,7.05-7.19,17.84-7.19,25.76.31,6.54,6.19,13,12.52,19.06,19.14,5.34,5.79,7.08,12.59,3.6,20.15C503.82,424.5,498.3,427.6,488.41,428.26Z"/><path class="cls-1" d="M471.38,56c-7.38-.71-12.81-3.76-16.12-10.12-3.56-6.83-2.93-13.77,2.06-19.32A263.3,263.3,0,0,1,480.15,3.91C486.85-1.91,496.25-1,502.71,5c6.79,6.26,8.67,15.64,2.75,22.72C498,36.6,489.39,44.58,480.82,52.47,478.53,54.57,474.57,54.84,471.38,56Z"/><path class="cls-1" d="M274.66,140.32c0-12,8.18-20.3,20.06-20.31a20.24,20.24,0,0,1,20.37,19.83,20.9,20.9,0,0,1-20.18,20.89C283.44,160.89,274.67,152.05,274.66,140.32Z"/><path class="cls-1" d="M314.56,288.34c-.05,11.88-8.42,20.09-20.33,20-11.29-.12-19.68-8.71-19.7-20.18,0-11.31,9.27-20.76,20.22-20.55C306.39,267.81,314.62,276.42,314.56,288.34Z"/></g></g></svg>