<svg xmlns="http://www.w3.org/2000/svg" viewBox="0 0 587.9 587.9"><defs><style>.cls-1{fill:#991b1f;}</style></defs><g id="Layer_2" data-name="Layer 2"><g id="Layer_1-2" data-name="Layer 1"><path class="cls-1" d="M300.66,0c13.54,5,18.74,15.25,18.59,29.11-.16,13.68,0,13.82,13.29,16,57.93,9.49,107,35.67,146.66,78.84,35.82,39,57.25,85,63.93,137.61.61,4.79,2.25,7.36,7.57,6.86a80.51,80.51,0,0,1,12,0c15.18.81,25.25,11.16,25.17,25.7-.09,14.08-10.32,24.26-25.29,25a91.27,91.27,0,0,1-12,0c-4.91-.41-6.85,1.79-7.38,6.41a229.21,229.21,0,0,1-26.32,84.33q-60.9,111.78-186.72,133a21.93,21.93,0,0,1-3.43.27c-5.32,0-8.22,2.11-7.58,8a76.11,76.11,0,0,1,0,10.89c-.57,15.53-10.89,25.93-25.6,25.88-14.34,0-24.57-10.46-25.17-25.72a102.89,102.89,0,0,1,0-12c.37-4.77-2-6.45-6.27-6.92a234.24,234.24,0,0,1-70.41-19.55Q117.23,490.16,76,419.57a240,240,0,0,1-31.61-93.86c-.53-4.49-2.2-7.1-7.23-6.55-2.65.29-5.35,0-8,.06-13.86.32-24.09-5-29.11-18.56V286.89C5,273.37,15.22,268,29.08,268.34c2.48.06,5-.25,7.45.05,5.48.67,7.24-2,7.92-7.07,8.95-66.75,40-121.23,92-163.7,34.62-28.3,74.49-45.32,118.61-52.54,13.3-2.17,13.41-2.41,13.25-16C268.14,15.22,273.37,5,286.89,0ZM493.29,265.69c-.46-2.09-.65-2.84-.78-3.59Q480.32,189.74,425,141.48c-29-25.22-62.74-40.52-100.64-46.76-3.86-.63-5.29.86-5.19,4.58s.16,7.28-.1,10.9c-1.07,14.61-12,25.38-25.44,25.27S269.4,124.61,268.43,110a77.37,77.37,0,0,1-.05-9.75c.3-5.06-1.69-6-6.57-5.21q-72,12.42-120.13,67.28C116.4,191.22,101.14,225,94.78,262.88c-.7,4.21.85,5.63,4.82,5.48,3.24-.12,6.5-.12,9.75,0,14.92.71,25.94,11.38,26.12,25.2.17,13.65-10.91,24.67-25.79,25.53a70.16,70.16,0,0,1-9.17,0c-5.36-.39-6.35,1.71-5.45,6.85q12.5,71.67,67,119.66c29.06,25.46,63,40.73,101.08,47.12,3.91.65,5.28-.88,5.18-4.58-.09-3.43-.12-6.89.07-10.32.82-14.87,11.8-25.95,25.48-25.82s24.24,10.84,25.22,25.51a77.21,77.21,0,0,1,.05,9.74c-.31,5.09,1.72,6,6.58,5.2q72-12.34,120.12-67.28c25.27-28.92,40.54-62.71,46.88-100.59.71-4.23-.85-5.6-4.8-5.47-3.44.11-6.9.15-10.33-.07-14.66-1-25.38-11.58-25.54-25.18s10.93-24.69,25.78-25.52c3.82-.21,7.68.17,11.46-.26C490.85,268,492.22,266.39,493.29,265.69Z"/><path class="cls-1" d="M293.54,392.65q-37.28,0-74.53,0c-16.83,0-23.78-7.31-24.17-24.2-.59-25.53,7.56-47,28.56-62.4a62.37,62.37,0,0,1,37.94-12.64c22,.1,44,0,65.93.05,31.5.14,60.9,26.54,64.31,57.77a174.32,174.32,0,0,1,1,18.84c0,14.88-7.78,22.53-22.81,22.57C344.37,392.7,319,392.65,293.54,392.65Z"/><path class="cls-1" d="M343.41,220.41a49.64,49.64,0,1,1-49.56-49.71A49.77,49.77,0,0,1,343.41,220.41Z"/></g></g></svg>