<svg id="SvgjsSvg1006" width="288" height="288" xmlns="http://www.w3.org/2000/svg" version="1.1" xmlns:xlink="http://www.w3.org/1999/xlink" xmlns:svgjs="http://svgjs.com/svgjs"><defs id="SvgjsDefs1007"></defs><g id="SvgjsG1008"><svg xmlns="http://www.w3.org/2000/svg" viewBox="0 0 361.78 355.97" width="288" height="288"><g data-name="Layer 2" fill="#000000" class="color000 svgShape"><g data-name="Layer 1" fill="#000000" class="color000 svgShape"><path fill="#101010" d="M109.67,28.94c2.41,2.74,4.2,5,6.27,7.06,7.46,7.24,13.83,8.18,23,3.29,4.38-2.33,8.51-5.11,12.87-7.45,11.55-6.19,19.73-3.64,25.58,8,4.71,9.36,10.2,18.58,8.88,29.7-.68,5.79-1.92,11.51-2.79,17.27a76,76,0,0,0-.9,9.14c-.24,9.8,2.1,13.21,11.21,16.83,14.29,5.68,17.45,18.59,7.15,30-7,7.77-16.08,12.56-25.63,16.33-13.15,5.18-26.54,9.75-39.66,15a75.42,75.42,0,0,0-14.14,7.76c-4.57,3.1-5,6.26-1.87,10.85,2,2.89,4.39,5.45,6.58,8.17,9,11.16,6.92,23.38-5.77,30.05-16.25,8.54-33.7,9.89-51.52,6.37-7.44-1.47-12.16-6.63-12.2-14.06,0-10,1.26-20,2.06-30,.27-3.35.82-6.66,1.2-10,1.7-15-2.55-27.86-13.43-38.61C39,137.17,31.9,129.25,24.47,121.41a133.74,133.74,0,0,0-7.94,36.13C12.79,207,27.91,249.79,63.6,284.43c30.62,29.72,67.82,44,110.57,43.87,3.58,0,4.62-1.66,5.05-4.51,1.64-10.89-3.63-27.44-20.52-29.74-2.16-.3-4.33-.64-6.46-1.12-9.16-2-13.32-7.86-12.35-17.14,1.72-16.4,17.56-33.23,33.89-36a16,16,0,0,1,2.13,0c.62,5,1.22,9.84,1.85,15-11.6,3.24-18.92,10.59-22.33,22.82,12.25,1.38,23.27,5.1,30.82,15.33,7.26,9.82,10.16,20.85,8.55,33.9l20.07-4q2.06,7.23,4.12,14.42c-57.73,18.15-137.3,2.43-185.93-63.71C-14.42,208.92-10.3,119.07,42.48,59,96-2,183.67-17.68,254.5,21.23,328.75,62,354.28,142.59,340.62,205.54l-14.1-2.81c.6-12.37,1.93-24.3,1.61-36.18-.79-29.26-9.68-56.13-25.75-80.63-1.39-2.12-2.7-2.82-5-1.61-3.85,2-8,3.67-11.56,6.09-4,2.67-4.07,4.84-1.44,8.86,2.8,4.27,5.78,8.43,8.39,12.81,7.19,12.06,7.58,24.37,1.74,37.21-3.11,6.82-5.19,14.1-8,22l-15.29-.87c2.07-7.48,3.87-14.43,5.93-21.29a42.71,42.71,0,0,1,3.13-6.73c3.74-7.38,3.53-14.66-.7-21.71-2.56-4.24-5.43-8.29-8.18-12.42-7.4-11.11-6-21.85,4.55-30.1,4.08-3.21,8.86-5.54,13.83-8.59a153.46,153.46,0,0,0-67.07-45.12C184.81,11.55,147.31,13.19,109.67,28.94ZM95.13,36.23A154.13,154.13,0,0,0,39.51,89.48C33.39,99.3,33.63,107,41,115.84c4.65,5.6,10.23,10.43,14.89,16,5.2,6.24,10.64,12.51,14.54,19.57,7.38,13.31,6,27.91,4.15,42.36-1,7.81-2,15.63-2.84,23.46-.24,2.23-.54,5.17,2.72,5.57,13.27,1.64,26.2.44,38.39-5.5,3.41-1.66,3.18-3.94,1-6.69-3.25-4.1-6.78-8.1-9.26-12.66-4.95-9.08-3.53-18.52,4-25.57a52.14,52.14,0,0,1,13.94-9.62c11-4.92,22.54-8.75,33.69-13.4,9.25-3.85,18.4-8,27.34-12.54,3-1.52,5.22-4.59,7.95-7.1a13.19,13.19,0,0,0-1.86-1.45c-1.46-.64-3-1.22-4.44-1.82-11.12-4.48-17.54-12.88-18-24.64a90.44,90.44,0,0,1,2.31-25.1c3-12.38-1.79-22.12-7.86-32.3C155.64,47.83,150,51.35,144,54.28c-13.37,6.58-25.82,4.7-36.83-5.21C102.94,45.29,99.37,40.81,95.13,36.23ZM314.88,298.05l46.9,46.79L350.6,356c-15.43-15.44-31.16-31.2-46.82-46.89-33.42,24.46-72.6,13.82-92.09-11.14a65.33,65.33,0,0,1,4.23-85.34c22.37-23.58,58.88-26.79,85.43-7.95C325.82,222,340.78,262.4,314.88,298.05Zm-2.29-40.34A49.52,49.52,0,1,0,263,307.22,49.53,49.53,0,0,0,312.59,257.71Z" data-name="5" class="color0074ff svgShape"></path></g></g></svg></g></svg>