<svg xmlns="http://www.w3.org/2000/svg" viewBox="0 0 596.33 589.08"><defs><style>.cls-1{fill:#991b1f;}</style></defs><g id="Layer_2" data-name="Layer 2"><g id="Layer_1-2" data-name="Layer 1"><path class="cls-1" d="M28.45,418.43c1.77-15.67,3.42-33.32,5.84-50.87a59.51,59.51,0,0,0-5.51-34.89C21.86,318.37,14.51,304.26,7.45,290c-13.79-27.83-8.2-56.73,14.8-77.66,8.09-7.37,15.54-15.49,24-22.37,17.14-13.9,26-32,29.7-53.33,1.92-11.16,4.82-22.17,7.67-33.15,7.17-27.63,29.68-45.66,58.2-47.24,17.08-.94,34.15-2.16,51.2-3.49,10.77-.84,20.37-5,29-11.43L257.22,15c26.64-20,55-20,81.64-.1,11.25,8.4,22.61,16.65,33.66,25.31C383.89,49.1,396.89,53,411,53.82c14.61.89,29.24,1.53,43.84,2.5,29.17,2,50.87,20,58,48.26,2.67,10.6,5.77,21.18,7.35,32,3.53,24.05,15.69,42.42,34.21,57.57a206.84,206.84,0,0,1,26.27,25.32c17.74,20.73,20,44.16,8.89,68.77-5.79,12.78-12,25.41-18.91,37.62-9.22,16.32-10.66,33.28-7.77,51.45a319.16,319.16,0,0,1,4.3,44.88c.4,25-11.63,43.57-33.73,54.81-14.51,7.38-29.72,13.41-44.78,19.66a66.26,66.26,0,0,0-31.38,26Q445.59,540.94,433.53,559c-17,25.6-42.87,35.38-72.62,27.23-17.3-4.75-34.41-10.21-51.71-14.93-10-2.74-20.06-1.2-29.9,1.76-15.22,4.58-30.36,9.43-45.69,13.58-27.65,7.49-53.64-2.26-69.8-26-8.71-12.79-17.07-25.84-25.5-38.82a64.59,64.59,0,0,0-30.06-24.85c-14.47-6.06-29-12-43.17-18.72C41,466.7,29.12,447.08,28.45,418.43Zm68-124.49c-.17,111.82,89.45,202.13,200.84,202.36,111.84.24,202.25-89.36,202.51-200.69C500,183.42,410.38,93.09,298.61,93S96.59,182.51,96.42,293.94Z"/><path class="cls-1" d="M481.77,294.57c0,101.17-82.49,183.72-183.63,183.73S114.42,395.8,114.42,294.66,196.89,111,298.05,111,481.75,193.36,481.77,294.57Zm-270-31.86c-9.24.24-17.19,5.79-22,15.65s-2.78,20.8,5.38,29.07Q224.7,337.37,254.61,367c12.05,12,27.31,12,39.47-.2q53.26-53.54,106.22-107.35a32.13,32.13,0,0,0,3.2-3.78c11.21-15.56,3.71-36.41-14.84-41.31-10.52-2.78-19,1-26.29,8.33q-41.14,41.57-82.24,83.18c-6.13,6.2-6.17,6.18-12.51-.16-11.54-11.52-23.11-23-34.57-34.6C227.7,265.68,221.37,262.8,211.73,262.71Z"/></g></g></svg>